<?xml version="1.0" encoding="UTF-8" standalone="no"?>
<!DOCTYPE svg PUBLIC "-//W3C//DTD SVG 1.1//EN"
 "http://www.w3.org/Graphics/SVG/1.1/DTD/svg11.dtd">
<!-- Generated by graphviz version 2.44.1 (20200629.0846)
 -->
<!-- Title: TMIV Pages: 1 -->
<svg width="3041pt" height="739pt"
 viewBox="0.00 0.00 3041.31 739.42" xmlns="http://www.w3.org/2000/svg" xmlns:xlink="http://www.w3.org/1999/xlink">
<g id="graph0" class="graph" transform="scale(1 1) rotate(0) translate(4 735.42)">
<title>TMIV</title>
<polygon fill="white" stroke="transparent" points="-4,4 -4,-735.42 3037.31,-735.42 3037.31,4 -4,4"/>
<g id="clust1" class="cluster">
<title>clusterLegend</title>
<polygon fill="none" stroke="black" points="8,-452.64 8,-723.42 521,-723.42 521,-452.64 8,-452.64"/>
<text text-anchor="middle" x="264.5" y="-708.22" font-family="Times New Roman,serif" font-size="14.00">Legend</text>
</g>
<!-- legendNode0 -->
<g id="node1" class="node">
<title>legendNode0</title>
<polygon fill="none" stroke="black" points="274.98,-656.47 277.62,-656.57 280.23,-656.72 282.8,-656.91 285.32,-657.16 287.79,-657.45 290.18,-657.79 292.5,-658.17 294.74,-658.6 296.87,-659.07 298.91,-659.58 300.84,-660.14 302.65,-660.73 304.34,-661.36 305.9,-662.03 307.33,-662.73 308.63,-663.46 309.79,-664.22 310.81,-665.01 311.69,-665.83 312.43,-666.67 313.03,-667.53 313.48,-668.41 313.8,-669.31 313.99,-670.22 314.04,-671.14 313.95,-672.07 313.75,-673.01 313.41,-673.95 312.97,-674.89 312.4,-675.83 311.73,-676.77 310.96,-677.7 310.09,-678.62 309.13,-679.53 308.08,-680.43 306.96,-681.31 305.76,-682.17 304.49,-683.01 303.16,-683.83 301.78,-684.62 300.34,-685.38 298.86,-686.12 297.33,-686.82 295.77,-687.48 294.17,-688.11 292.55,-688.71 290.9,-689.26 289.23,-689.77 287.54,-690.25 285.84,-690.67 284.12,-691.06 282.39,-691.39 280.65,-691.69 278.91,-691.93 277.15,-692.13 275.4,-692.27 273.64,-692.37 271.88,-692.42 270.12,-692.42 268.36,-692.37 266.6,-692.27 264.85,-692.13 263.09,-691.93 261.35,-691.69 259.61,-691.39 257.88,-691.06 256.16,-690.67 254.46,-690.25 252.77,-689.77 251.1,-689.26 249.45,-688.71 247.83,-688.11 246.23,-687.48 244.67,-686.82 243.14,-686.12 241.66,-685.38 240.22,-684.62 238.84,-683.83 237.51,-683.01 236.24,-682.17 235.04,-681.31 233.92,-680.43 232.87,-679.53 231.91,-678.62 231.04,-677.7 230.27,-676.77 229.6,-675.83 229.03,-674.89 228.59,-673.95 228.25,-673.01 228.05,-672.07 227.96,-671.14 228.01,-670.22 228.2,-669.31 228.52,-668.41 228.97,-667.53 229.57,-666.67 230.31,-665.83 231.19,-665.01 232.21,-664.22 233.37,-663.46 234.67,-662.73 236.1,-662.03 237.66,-661.36 239.35,-660.73 241.16,-660.14 243.09,-659.58 245.13,-659.07 247.26,-658.6 249.5,-658.17 251.82,-657.79 254.21,-657.45 256.68,-657.16 259.2,-656.91 261.77,-656.72 264.38,-656.57 267.02,-656.47 269.67,-656.42 272.33,-656.42 274.98,-656.47"/>
<text text-anchor="middle" x="271" y="-671.32" font-family="Times New Roman,serif" font-size="12.00">Executable</text>
</g>
<!-- legendNode1 -->
<g id="node2" class="node">
<title>legendNode1</title>
<polygon fill="none" stroke="black" points="119.94,-574.23 119.94,-589.14 89.52,-599.68 46.48,-599.68 16.06,-589.14 16.06,-574.23 46.48,-563.68 89.52,-563.68 119.94,-574.23"/>
<text text-anchor="middle" x="68" y="-578.58" font-family="Times New Roman,serif" font-size="12.00">Static Library</text>
</g>
<!-- legendNode0&#45;&gt;legendNode1 -->
<g id="edge1" class="edge">
<title>legendNode0&#45;&gt;legendNode1</title>
<path fill="none" stroke="black" d="M241.05,-660.03C205.97,-644.35 147.7,-618.31 108.58,-600.82"/>
<polygon fill="black" stroke="black" points="109.63,-597.46 99.08,-596.57 106.78,-603.85 109.63,-597.46"/>
</g>
<!-- legendNode2 -->
<g id="node3" class="node">
<title>legendNode2</title>
<polygon fill="none" stroke="black" points="255.76,-574.23 255.76,-589.14 222.51,-599.68 175.49,-599.68 142.24,-589.14 142.24,-574.23 175.49,-563.68 222.51,-563.68 255.76,-574.23"/>
<polygon fill="none" stroke="black" points="259.77,-571.3 259.77,-592.06 223.13,-603.68 174.87,-603.68 138.23,-592.06 138.23,-571.3 174.87,-559.68 223.13,-559.68 259.77,-571.3"/>
<text text-anchor="middle" x="199" y="-578.58" font-family="Times New Roman,serif" font-size="12.00">Shared Library</text>
</g>
<!-- legendNode0&#45;&gt;legendNode2 -->
<g id="edge2" class="edge">
<title>legendNode0&#45;&gt;legendNode2</title>
<path fill="none" stroke="black" d="M257.79,-656.78C247.79,-644.17 233.8,-626.54 221.98,-611.64"/>
<polygon fill="black" stroke="black" points="224.63,-609.35 215.67,-603.69 219.14,-613.7 224.63,-609.35"/>
</g>
<!-- legendNode3 -->
<g id="node4" class="node">
<title>legendNode3</title>
<polygon fill="none" stroke="black" points="402.75,-574.23 402.75,-589.14 368.34,-599.68 319.66,-599.68 285.25,-589.14 285.25,-574.23 319.66,-563.68 368.34,-563.68 402.75,-574.23"/>
<polygon fill="none" stroke="black" points="406.76,-571.27 406.76,-592.09 368.94,-603.68 319.06,-603.68 281.24,-592.09 281.24,-571.27 319.06,-559.68 368.94,-559.68 406.76,-571.27"/>
<polygon fill="none" stroke="black" points="410.77,-568.31 410.77,-595.05 369.54,-607.68 318.46,-607.68 277.23,-595.05 277.23,-568.31 318.46,-555.68 369.54,-555.68 410.77,-568.31"/>
<text text-anchor="middle" x="344" y="-578.58" font-family="Times New Roman,serif" font-size="12.00">Module Library</text>
</g>
<!-- legendNode0&#45;&gt;legendNode3 -->
<!-- legendNode7 -->
<g id="node8" class="node">
<title>legendNode7</title>
<polygon fill="none" stroke="black" points="513,-599.68 429,-599.68 429,-563.68 513,-563.68 513,-599.68"/>
<text text-anchor="middle" x="471" y="-578.58" font-family="Times New Roman,serif" font-size="12.00">Custom Target</text>
</g>
<!-- legendNode0&#45;&gt;legendNode7 -->
<!-- legendNode4 -->
<g id="node5" class="node">
<title>legendNode4</title>
<polygon fill="none" stroke="black" points="156.01,-484.2 86,-496.64 15.99,-484.2 42.73,-464.07 129.27,-464.07 156.01,-484.2"/>
<text text-anchor="middle" x="86" y="-475.54" font-family="Times New Roman,serif" font-size="12.00">Interface Library</text>
</g>
<!-- legendNode1&#45;&gt;legendNode4 -->
<g id="edge4" class="edge">
<title>legendNode1&#45;&gt;legendNode4</title>
<path fill="none" stroke="black" stroke-dasharray="5,2" d="M71.05,-563.54C73.85,-547.82 78.04,-524.29 81.28,-506.15"/>
<polygon fill="black" stroke="black" points="84.74,-506.65 83.05,-496.19 77.85,-505.42 84.74,-506.65"/>
<text text-anchor="middle" x="103.5" y="-526.46" font-family="Times New Roman,serif" font-size="14.00">Interface</text>
</g>
<!-- legendNode5 -->
<g id="node6" class="node">
<title>legendNode5</title>
<polygon fill="none" stroke="black" points="293.92,-478.64 263.96,-496.64 204.04,-496.64 174.08,-478.64 204.04,-460.64 263.96,-460.64 293.92,-478.64"/>
<text text-anchor="middle" x="234" y="-475.54" font-family="Times New Roman,serif" font-size="12.00">Object Library</text>
</g>
<!-- legendNode2&#45;&gt;legendNode5 -->
<g id="edge5" class="edge">
<title>legendNode2&#45;&gt;legendNode5</title>
<path fill="none" stroke="black" stroke-dasharray="1,5" d="M206.42,-559.25C211.77,-543.8 219.03,-522.85 224.76,-506.32"/>
<polygon fill="black" stroke="black" points="228.13,-507.28 228.09,-496.68 221.51,-504.99 228.13,-507.28"/>
<text text-anchor="middle" x="238.5" y="-526.46" font-family="Times New Roman,serif" font-size="14.00">Private</text>
</g>
<!-- legendNode6 -->
<g id="node7" class="node">
<title>legendNode6</title>
<polygon fill="none" stroke="black" points="444.05,-474.63 430.97,-489.86 378,-496.64 325.03,-489.86 311.95,-474.63 348.6,-462.42 407.4,-462.42 444.05,-474.63"/>
<text text-anchor="middle" x="378" y="-475.54" font-family="Times New Roman,serif" font-size="12.00">Unknown Library</text>
</g>
<!-- legendNode3&#45;&gt;legendNode6 -->
<g id="edge6" class="edge">
<title>legendNode3&#45;&gt;legendNode6</title>
<path fill="none" stroke="black" d="M352.49,-555.44C357.57,-540.34 364.02,-521.18 369.16,-505.89"/>
<polygon fill="black" stroke="black" points="372.61,-506.63 372.48,-496.03 365.98,-504.4 372.61,-506.63"/>
</g>
<!-- node0 -->
<g id="node9" class="node">
<title>node0</title>
<polygon fill="none" stroke="black" points="2600.81,-467.85 2600.81,-489.42 2545.27,-504.68 2466.73,-504.68 2411.19,-489.42 2411.19,-467.85 2466.73,-452.59 2545.27,-452.59 2600.81,-467.85"/>
<text text-anchor="middle" x="2506" y="-482.04" font-family="Times New Roman,serif" font-size="12.00">AggregatorLib</text>
<text text-anchor="middle" x="2506" y="-469.04" font-family="Times New Roman,serif" font-size="12.00">(TMIV::AggregatorLib)</text>
</g>
<!-- node1 -->
<g id="node10" class="node">
<title>node1</title>
<polygon fill="none" stroke="black" points="1489.03,-104.28 1489.03,-125.86 1437.47,-141.11 1364.53,-141.11 1312.97,-125.86 1312.97,-104.28 1364.53,-89.02 1437.47,-89.02 1489.03,-104.28"/>
<text text-anchor="middle" x="1401" y="-118.47" font-family="Times New Roman,serif" font-size="12.00">CommonLib</text>
<text text-anchor="middle" x="1401" y="-105.47" font-family="Times New Roman,serif" font-size="12.00">(TMIV::CommonLib)</text>
</g>
<!-- node0&#45;&gt;node1 -->
<g id="edge9" class="edge">
<title>node0&#45;&gt;node1</title>
<path fill="none" stroke="black" d="M2436.6,-460.71C2349.11,-438.89 2210,-402.34 2210,-390.59 2210,-390.59 2210,-390.59 2210,-203.11 2210,-132.37 1714.64,-119.04 1499.16,-116.59"/>
<polygon fill="black" stroke="black" points="1499.15,-113.09 1489.12,-116.48 1499.08,-120.09 1499.15,-113.09"/>
</g>
<!-- node2 -->
<g id="node11" class="node">
<title>node2</title>
<polygon fill="none" stroke="black" points="1444.75,-15.23 1444.75,-36.81 1419.12,-52.07 1382.88,-52.07 1357.25,-36.81 1357.25,-15.23 1382.88,0.02 1419.12,0.02 1444.75,-15.23"/>
<text text-anchor="middle" x="1401" y="-29.42" font-family="Times New Roman,serif" font-size="12.00">fmt</text>
<text text-anchor="middle" x="1401" y="-16.42" font-family="Times New Roman,serif" font-size="12.00">(fmt::fmt)</text>
</g>
<!-- node1&#45;&gt;node2 -->
<g id="edge8" class="edge">
<title>node1&#45;&gt;node2</title>
<path fill="none" stroke="black" d="M1401,-88.89C1401,-80.59 1401,-71.2 1401,-62.29"/>
<polygon fill="black" stroke="black" points="1404.5,-62.14 1401,-52.14 1397.5,-62.14 1404.5,-62.14"/>
</g>
<!-- node3 -->
<g id="node12" class="node">
<title>node3</title>
<polygon fill="none" stroke="black" points="782.74,-278.9 785.89,-279 788.99,-279.15 792.06,-279.34 795.06,-279.59 798,-279.88 800.85,-280.22 803.62,-280.6 806.28,-281.03 808.82,-281.5 811.25,-282.01 813.54,-282.57 815.7,-283.16 817.71,-283.79 819.57,-284.46 821.28,-285.16 822.82,-285.89 824.21,-286.65 825.42,-287.44 826.47,-288.26 827.35,-289.1 828.06,-289.96 828.61,-290.84 828.99,-291.74 829.21,-292.65 829.27,-293.57 829.17,-294.5 828.92,-295.44 828.53,-296.38 827.99,-297.32 827.32,-298.26 826.53,-299.2 825.61,-300.13 824.57,-301.06 823.43,-301.97 822.18,-302.86 820.84,-303.74 819.41,-304.6 817.9,-305.44 816.32,-306.26 814.67,-307.05 812.95,-307.81 811.19,-308.55 809.37,-309.25 807.51,-309.91 805.61,-310.54 803.67,-311.14 801.71,-311.69 799.72,-312.2 797.71,-312.68 795.67,-313.1 793.63,-313.49 791.57,-313.83 789.5,-314.12 787.42,-314.36 785.33,-314.56 783.24,-314.7 781.15,-314.8 779.05,-314.85 776.95,-314.85 774.85,-314.8 772.76,-314.7 770.67,-314.56 768.58,-314.36 766.5,-314.12 764.43,-313.83 762.37,-313.49 760.33,-313.1 758.29,-312.68 756.28,-312.2 754.29,-311.69 752.33,-311.14 750.39,-310.54 748.49,-309.91 746.63,-309.25 744.81,-308.55 743.05,-307.81 741.33,-307.05 739.68,-306.26 738.1,-305.44 736.59,-304.6 735.16,-303.74 733.82,-302.86 732.57,-301.97 731.43,-301.06 730.39,-300.13 729.47,-299.2 728.68,-298.26 728.01,-297.32 727.47,-296.38 727.08,-295.44 726.83,-294.5 726.73,-293.57 726.79,-292.65 727.01,-291.74 727.39,-290.84 727.94,-289.96 728.65,-289.1 729.53,-288.26 730.58,-287.44 731.79,-286.65 733.18,-285.89 734.72,-285.16 736.43,-284.46 738.29,-283.79 740.3,-283.16 742.46,-282.57 744.75,-282.01 747.18,-281.5 749.72,-281.03 752.38,-280.6 755.15,-280.22 758,-279.88 760.94,-279.59 763.94,-279.34 767.01,-279.15 770.11,-279 773.26,-278.9 776.42,-278.85 779.58,-278.85 782.74,-278.9"/>
<text text-anchor="middle" x="778" y="-293.75" font-family="Times New Roman,serif" font-size="12.00">BitrateReport</text>
</g>
<!-- node4 -->
<g id="node13" class="node">
<title>node4</title>
<polygon fill="none" stroke="black" points="1503.62,-193.32 1503.62,-214.9 1443.51,-230.16 1358.49,-230.16 1298.38,-214.9 1298.38,-193.32 1358.49,-178.07 1443.51,-178.07 1503.62,-193.32"/>
<text text-anchor="middle" x="1401" y="-207.51" font-family="Times New Roman,serif" font-size="12.00">MivBitstreamLib</text>
<text text-anchor="middle" x="1401" y="-194.51" font-family="Times New Roman,serif" font-size="12.00">(TMIV::MivBitstreamLib)</text>
</g>
<!-- node3&#45;&gt;node4 -->
<g id="edge11" class="edge">
<title>node3&#45;&gt;node4</title>
<path fill="none" stroke="black" stroke-dasharray="1,5" d="M804.72,-280.69C814.85,-275.58 826.67,-270.37 838,-267.13 989.91,-223.77 1172.87,-210.41 1288.09,-206.47"/>
<polygon fill="black" stroke="black" points="1288.46,-209.96 1298.34,-206.14 1288.23,-202.96 1288.46,-209.96"/>
</g>
<!-- node4&#45;&gt;node1 -->
<g id="edge10" class="edge">
<title>node4&#45;&gt;node1</title>
<path fill="none" stroke="black" d="M1401,-177.94C1401,-169.63 1401,-160.24 1401,-151.33"/>
<polygon fill="black" stroke="black" points="1404.5,-151.19 1401,-141.19 1397.5,-151.19 1404.5,-151.19"/>
</g>
<!-- node5 -->
<g id="node14" class="node">
<title>node5</title>
<polygon fill="none" stroke="black" points="1013.07,-306.1 930,-326.79 846.93,-306.1 878.66,-272.63 981.34,-272.63 1013.07,-306.1"/>
<text text-anchor="middle" x="930" y="-300.25" font-family="Times New Roman,serif" font-size="12.00">Catch2</text>
<text text-anchor="middle" x="930" y="-287.25" font-family="Times New Roman,serif" font-size="12.00">(Catch2::Catch2)</text>
</g>
<!-- node6 -->
<g id="node15" class="node">
<title>node6</title>
<polygon fill="none" stroke="black" points="739.74,-371.64 742.89,-371.74 745.99,-371.89 749.06,-372.08 752.06,-372.33 755,-372.62 757.85,-372.96 760.62,-373.34 763.28,-373.77 765.82,-374.24 768.25,-374.75 770.54,-375.31 772.7,-375.9 774.71,-376.53 776.57,-377.2 778.28,-377.9 779.82,-378.63 781.21,-379.39 782.42,-380.18 783.47,-381 784.35,-381.84 785.06,-382.7 785.61,-383.58 785.99,-384.48 786.21,-385.39 786.27,-386.31 786.17,-387.24 785.92,-388.18 785.53,-389.12 784.99,-390.06 784.32,-391 783.53,-391.94 782.61,-392.87 781.57,-393.79 780.43,-394.71 779.18,-395.6 777.84,-396.48 776.41,-397.34 774.9,-398.18 773.32,-399 771.67,-399.79 769.95,-400.55 768.19,-401.29 766.37,-401.99 764.51,-402.65 762.61,-403.28 760.67,-403.88 758.71,-404.43 756.72,-404.94 754.71,-405.42 752.67,-405.84 750.63,-406.23 748.57,-406.56 746.5,-406.86 744.42,-407.1 742.33,-407.3 740.24,-407.44 738.15,-407.54 736.05,-407.59 733.95,-407.59 731.85,-407.54 729.76,-407.44 727.67,-407.3 725.58,-407.1 723.5,-406.86 721.43,-406.56 719.37,-406.23 717.33,-405.84 715.29,-405.42 713.28,-404.94 711.29,-404.43 709.33,-403.88 707.39,-403.28 705.49,-402.65 703.63,-401.99 701.81,-401.29 700.05,-400.55 698.33,-399.79 696.68,-399 695.1,-398.18 693.59,-397.34 692.16,-396.48 690.82,-395.6 689.57,-394.71 688.43,-393.79 687.39,-392.87 686.47,-391.94 685.68,-391 685.01,-390.06 684.47,-389.12 684.08,-388.18 683.83,-387.24 683.73,-386.31 683.79,-385.39 684.01,-384.48 684.39,-383.58 684.94,-382.7 685.65,-381.84 686.53,-381 687.58,-380.18 688.79,-379.39 690.18,-378.63 691.72,-377.9 693.43,-377.2 695.29,-376.53 697.3,-375.9 699.46,-375.31 701.75,-374.75 704.18,-374.24 706.72,-373.77 709.38,-373.34 712.15,-372.96 715,-372.62 717.94,-372.33 720.94,-372.08 724.01,-371.89 727.11,-371.74 730.26,-371.64 733.42,-371.59 736.58,-371.59 739.74,-371.64"/>
<text text-anchor="middle" x="735" y="-386.49" font-family="Times New Roman,serif" font-size="12.00">CommonTest</text>
</g>
<!-- node6&#45;&gt;node1 -->
<g id="edge13" class="edge">
<title>node6&#45;&gt;node1</title>
<path fill="none" stroke="black" stroke-dasharray="1,5" d="M725.48,-371.59C712.57,-345.99 693.74,-297.35 718,-267.13 790.27,-177.14 1131.79,-137.5 1302.86,-123.06"/>
<polygon fill="black" stroke="black" points="1303.2,-126.54 1312.88,-122.22 1302.62,-119.56 1303.2,-126.54"/>
</g>
<!-- node6&#45;&gt;node5 -->
<g id="edge12" class="edge">
<title>node6&#45;&gt;node5</title>
<path fill="none" stroke="black" stroke-dasharray="1,5" d="M755.84,-372.51C768.2,-363.48 784.45,-352.47 800,-344.57 821.23,-333.78 845.55,-324.33 867.37,-316.81"/>
<polygon fill="black" stroke="black" points="868.52,-320.11 876.88,-313.6 866.28,-313.48 868.52,-320.11"/>
</g>
<!-- node7 -->
<g id="node16" class="node">
<title>node7</title>
<polygon fill="none" stroke="black" points="1142.42,-563.73 1144.68,-563.83 1146.92,-563.98 1149.12,-564.17 1151.29,-564.42 1153.4,-564.71 1155.46,-565.05 1157.45,-565.43 1159.37,-565.86 1161.2,-566.33 1162.95,-566.84 1164.6,-567.4 1166.15,-567.99 1167.6,-568.62 1168.94,-569.29 1170.17,-569.99 1171.28,-570.72 1172.28,-571.48 1173.15,-572.27 1173.91,-573.09 1174.54,-573.93 1175.06,-574.79 1175.45,-575.67 1175.72,-576.57 1175.88,-577.48 1175.92,-578.4 1175.85,-579.33 1175.68,-580.27 1175.39,-581.21 1175.01,-582.15 1174.52,-583.09 1173.95,-584.03 1173.29,-584.96 1172.54,-585.88 1171.72,-586.8 1170.82,-587.69 1169.85,-588.57 1168.82,-589.43 1167.74,-590.27 1166.6,-591.09 1165.41,-591.88 1164.17,-592.64 1162.9,-593.38 1161.59,-594.08 1160.25,-594.74 1158.88,-595.37 1157.49,-595.97 1156.07,-596.52 1154.64,-597.03 1153.19,-597.51 1151.73,-597.93 1150.26,-598.32 1148.77,-598.65 1147.28,-598.95 1145.78,-599.19 1144.28,-599.39 1142.77,-599.53 1141.27,-599.63 1139.76,-599.68 1138.24,-599.68 1136.73,-599.63 1135.23,-599.53 1133.72,-599.39 1132.22,-599.19 1130.72,-598.95 1129.23,-598.65 1127.74,-598.32 1126.27,-597.93 1124.81,-597.51 1123.36,-597.03 1121.93,-596.52 1120.51,-595.97 1119.12,-595.37 1117.75,-594.74 1116.41,-594.08 1115.1,-593.38 1113.83,-592.64 1112.59,-591.88 1111.4,-591.09 1110.26,-590.27 1109.18,-589.43 1108.15,-588.57 1107.18,-587.69 1106.28,-586.8 1105.46,-585.88 1104.71,-584.96 1104.05,-584.03 1103.48,-583.09 1102.99,-582.15 1102.61,-581.21 1102.32,-580.27 1102.15,-579.33 1102.08,-578.4 1102.12,-577.48 1102.28,-576.57 1102.55,-575.67 1102.94,-574.79 1103.46,-573.93 1104.09,-573.09 1104.85,-572.27 1105.72,-571.48 1106.72,-570.72 1107.83,-569.99 1109.06,-569.29 1110.4,-568.62 1111.85,-567.99 1113.4,-567.4 1115.05,-566.84 1116.8,-566.33 1118.63,-565.86 1120.55,-565.43 1122.54,-565.05 1124.6,-564.71 1126.71,-564.42 1128.88,-564.17 1131.08,-563.98 1133.32,-563.83 1135.58,-563.73 1137.86,-563.68 1140.14,-563.68 1142.42,-563.73"/>
<text text-anchor="middle" x="1139" y="-578.58" font-family="Times New Roman,serif" font-size="12.00">Decoder</text>
</g>
<!-- node8 -->
<g id="node17" class="node">
<title>node8</title>
<polygon fill="none" stroke="black" points="2086.47,-467.85 2086.47,-489.42 2035.82,-504.68 1964.18,-504.68 1913.53,-489.42 1913.53,-467.85 1964.18,-452.59 2035.82,-452.59 2086.47,-467.85"/>
<text text-anchor="middle" x="2000" y="-482.04" font-family="Times New Roman,serif" font-size="12.00">DecoderLib</text>
<text text-anchor="middle" x="2000" y="-469.04" font-family="Times New Roman,serif" font-size="12.00">(TMIV::DecoderLib)</text>
</g>
<!-- node7&#45;&gt;node8 -->
<g id="edge20" class="edge">
<title>node7&#45;&gt;node8</title>
<path fill="none" stroke="black" stroke-dasharray="1,5" d="M1176.12,-576.93C1224.78,-572.02 1312.77,-563.15 1388,-555.66 1617.76,-532.78 1677.75,-545.53 1905,-504.66 1912.88,-503.24 1921.06,-501.5 1929.17,-499.61"/>
<polygon fill="black" stroke="black" points="1930.1,-502.99 1939,-497.23 1928.45,-496.18 1930.1,-502.99"/>
</g>
<!-- node14 -->
<g id="node23" class="node">
<title>node14</title>
<polygon fill="none" stroke="black" points="1044.3,-467.85 1044.3,-489.42 981.45,-504.68 892.55,-504.68 829.7,-489.42 829.7,-467.85 892.55,-452.59 981.45,-452.59 1044.3,-467.85"/>
<text text-anchor="middle" x="937" y="-482.04" font-family="Times New Roman,serif" font-size="12.00">RendererFrontLib</text>
<text text-anchor="middle" x="937" y="-469.04" font-family="Times New Roman,serif" font-size="12.00">(TMIV::RendererFrontLib)</text>
</g>
<!-- node7&#45;&gt;node14 -->
<g id="edge27" class="edge">
<title>node7&#45;&gt;node14</title>
<path fill="none" stroke="black" stroke-dasharray="1,5" d="M1112.59,-567.47C1082.79,-552.56 1033.42,-527.87 994.6,-508.45"/>
<polygon fill="black" stroke="black" points="995.99,-505.23 985.48,-503.89 992.86,-511.49 995.99,-505.23"/>
</g>
<!-- node9 -->
<g id="node18" class="node">
<title>node9</title>
<polygon fill="none" stroke="black" points="2107.3,-378.8 2107.3,-400.38 2044.45,-415.64 1955.55,-415.64 1892.7,-400.38 1892.7,-378.8 1955.55,-363.55 2044.45,-363.55 2107.3,-378.8"/>
<text text-anchor="middle" x="2000" y="-392.99" font-family="Times New Roman,serif" font-size="12.00">VideoDecoderLib</text>
<text text-anchor="middle" x="2000" y="-379.99" font-family="Times New Roman,serif" font-size="12.00">(TMIV::VideoDecoderLib)</text>
</g>
<!-- node8&#45;&gt;node9 -->
<g id="edge19" class="edge">
<title>node8&#45;&gt;node9</title>
<path fill="none" stroke="black" d="M2000,-452.46C2000,-444.16 2000,-434.77 2000,-425.86"/>
<polygon fill="black" stroke="black" points="2003.5,-425.71 2000,-415.71 1996.5,-425.71 2003.5,-425.71"/>
</g>
<!-- node9&#45;&gt;node4 -->
<g id="edge14" class="edge">
<title>node9&#45;&gt;node4</title>
<path fill="none" stroke="black" d="M1892.66,-379.28C1846.57,-371.02 1794.2,-355.54 1754,-326.57 1728.56,-308.24 1741.91,-284.79 1716,-267.13 1682.83,-244.53 1587.27,-227.73 1510.03,-217.36"/>
<polygon fill="black" stroke="black" points="1510.11,-213.84 1499.74,-216 1509.2,-220.78 1510.11,-213.84"/>
</g>
<!-- node10 -->
<g id="node19" class="node">
<title>node10</title>
<polygon fill="none" stroke="black" points="2420.16,-286.06 2420.16,-307.64 2366.76,-322.9 2291.24,-322.9 2237.84,-307.64 2237.84,-286.06 2291.24,-270.81 2366.76,-270.81 2420.16,-286.06"/>
<text text-anchor="middle" x="2329" y="-300.25" font-family="Times New Roman,serif" font-size="12.00">TLibDecoder</text>
<text text-anchor="middle" x="2329" y="-287.25" font-family="Times New Roman,serif" font-size="12.00">(TMIV::TLibDecoder)</text>
</g>
<!-- node9&#45;&gt;node10 -->
<g id="edge17" class="edge">
<title>node9&#45;&gt;node10</title>
<path fill="none" stroke="black" stroke-dasharray="1,5" d="M2069.37,-369.46C2123.88,-354.42 2199.62,-333.53 2255.23,-318.2"/>
<polygon fill="black" stroke="black" points="2256.32,-321.53 2265.02,-315.5 2254.45,-314.78 2256.32,-321.53"/>
</g>
<!-- node13 -->
<g id="node22" class="node">
<title>node13</title>
<polygon fill="none" stroke="black" points="1707.07,-302.41 1635,-314.85 1562.93,-302.41 1590.46,-282.29 1679.54,-282.29 1707.07,-302.41"/>
<text text-anchor="middle" x="1635" y="-293.75" font-family="Times New Roman,serif" font-size="12.00">Threads::Threads</text>
</g>
<!-- node9&#45;&gt;node13 -->
<g id="edge18" class="edge">
<title>node9&#45;&gt;node13</title>
<path fill="none" stroke="black" stroke-dasharray="1,5" d="M1892.55,-380.97C1839.81,-374.99 1775.95,-364.38 1721,-345.57 1700.69,-338.62 1679.59,-326.99 1663.37,-316.95"/>
<polygon fill="black" stroke="black" points="1665.22,-313.97 1654.9,-311.57 1661.47,-319.89 1665.22,-313.97"/>
</g>
<!-- node11 -->
<g id="node20" class="node">
<title>node11</title>
<polygon fill="none" stroke="black" points="2726.25,-193.32 2726.25,-214.9 2671.63,-230.16 2594.37,-230.16 2539.75,-214.9 2539.75,-193.32 2594.37,-178.07 2671.63,-178.07 2726.25,-193.32"/>
<text text-anchor="middle" x="2633" y="-207.51" font-family="Times New Roman,serif" font-size="12.00">TLibCommon</text>
<text text-anchor="middle" x="2633" y="-194.51" font-family="Times New Roman,serif" font-size="12.00">(TMIV::TLibCommon)</text>
</g>
<!-- node10&#45;&gt;node11 -->
<g id="edge16" class="edge">
<title>node10&#45;&gt;node11</title>
<path fill="none" stroke="black" d="M2390.52,-277.49C2439.82,-262.77 2509.1,-242.1 2560.99,-226.61"/>
<polygon fill="black" stroke="black" points="2562.21,-229.89 2570.79,-223.68 2560.21,-223.19 2562.21,-229.89"/>
</g>
<!-- node12 -->
<g id="node21" class="node">
<title>node12</title>
<polygon fill="none" stroke="black" points="2701.24,-104.28 2701.24,-125.86 2661.26,-141.11 2604.74,-141.11 2564.76,-125.86 2564.76,-104.28 2604.74,-89.02 2661.26,-89.02 2701.24,-104.28"/>
<text text-anchor="middle" x="2633" y="-118.47" font-family="Times New Roman,serif" font-size="12.00">libmd5</text>
<text text-anchor="middle" x="2633" y="-105.47" font-family="Times New Roman,serif" font-size="12.00">(TMIV::libmd5)</text>
</g>
<!-- node11&#45;&gt;node12 -->
<g id="edge15" class="edge">
<title>node11&#45;&gt;node12</title>
<path fill="none" stroke="black" stroke-dasharray="1,5" d="M2633,-177.94C2633,-169.63 2633,-160.24 2633,-151.33"/>
<polygon fill="black" stroke="black" points="2636.5,-151.19 2633,-141.19 2629.5,-151.19 2636.5,-151.19"/>
</g>
<!-- node15 -->
<g id="node24" class="node">
<title>node15</title>
<polygon fill="none" stroke="black" points="627.64,-378.8 627.64,-400.38 589.19,-415.64 534.81,-415.64 496.36,-400.38 496.36,-378.8 534.81,-363.55 589.19,-363.55 627.64,-378.8"/>
<text text-anchor="middle" x="562" y="-392.99" font-family="Times New Roman,serif" font-size="12.00">IOLib</text>
<text text-anchor="middle" x="562" y="-379.99" font-family="Times New Roman,serif" font-size="12.00">(TMIV::IOLib)</text>
</g>
<!-- node14&#45;&gt;node15 -->
<g id="edge22" class="edge">
<title>node14&#45;&gt;node15</title>
<path fill="none" stroke="black" d="M861.11,-460.02C793.02,-444.22 694.05,-421.24 628.87,-406.11"/>
<polygon fill="black" stroke="black" points="629.64,-402.7 619.11,-403.85 628.06,-409.52 629.64,-402.7"/>
</g>
<!-- node16 -->
<g id="node25" class="node">
<title>node16</title>
<polygon fill="none" stroke="black" points="1648.03,-378.8 1648.03,-400.38 1596.47,-415.64 1523.53,-415.64 1471.97,-400.38 1471.97,-378.8 1523.53,-363.55 1596.47,-363.55 1648.03,-378.8"/>
<text text-anchor="middle" x="1560" y="-392.99" font-family="Times New Roman,serif" font-size="12.00">RendererLib</text>
<text text-anchor="middle" x="1560" y="-379.99" font-family="Times New Roman,serif" font-size="12.00">(TMIV::RendererLib)</text>
</g>
<!-- node14&#45;&gt;node16 -->
<g id="edge26" class="edge">
<title>node14&#45;&gt;node16</title>
<path fill="none" stroke="black" d="M1012.93,-460.22C1026.25,-457.47 1040,-454.81 1053,-452.61 1072.96,-449.25 1322.44,-419.12 1463.82,-402.13"/>
<polygon fill="black" stroke="black" points="1464.3,-405.6 1473.81,-400.93 1463.47,-398.65 1464.3,-405.6"/>
</g>
<!-- node15&#45;&gt;node4 -->
<g id="edge21" class="edge">
<title>node15&#45;&gt;node4</title>
<path fill="none" stroke="black" d="M576.01,-363.36C596,-330.19 636.08,-273.21 688,-248.13 740.5,-222.78 1100.56,-211.46 1288.03,-207.24"/>
<polygon fill="black" stroke="black" points="1288.28,-210.73 1298.2,-207.01 1288.13,-203.74 1288.28,-210.73"/>
</g>
<!-- node16&#45;&gt;node13 -->
<g id="edge23" class="edge">
<title>node16&#45;&gt;node13</title>
<path fill="none" stroke="black" stroke-dasharray="1,5" d="M1580.89,-363.32C1591.91,-349.98 1605.33,-333.74 1616.05,-320.78"/>
<polygon fill="black" stroke="black" points="1618.98,-322.73 1622.65,-312.79 1613.58,-318.27 1618.98,-322.73"/>
</g>
<!-- node17 -->
<g id="node26" class="node">
<title>node17</title>
<polygon fill="none" stroke="black" points="1506.74,-286.06 1506.74,-307.64 1444.8,-322.9 1357.2,-322.9 1295.26,-307.64 1295.26,-286.06 1357.2,-270.81 1444.8,-270.81 1506.74,-286.06"/>
<text text-anchor="middle" x="1401" y="-300.25" font-family="Times New Roman,serif" font-size="12.00">ViewingSpaceLib</text>
<text text-anchor="middle" x="1401" y="-287.25" font-family="Times New Roman,serif" font-size="12.00">(TMIV::ViewingSpaceLib)</text>
</g>
<!-- node16&#45;&gt;node17 -->
<g id="edge25" class="edge">
<title>node16&#45;&gt;node17</title>
<path fill="none" stroke="black" d="M1518.64,-364.99C1498.83,-353.68 1474.89,-340.02 1453.79,-327.98"/>
<polygon fill="black" stroke="black" points="1455.36,-324.84 1444.94,-322.93 1451.89,-330.92 1455.36,-324.84"/>
</g>
<!-- node17&#45;&gt;node4 -->
<g id="edge24" class="edge">
<title>node17&#45;&gt;node4</title>
<path fill="none" stroke="black" d="M1401,-270.58C1401,-261.24 1401,-250.47 1401,-240.4"/>
<polygon fill="black" stroke="black" points="1404.5,-240.25 1401,-230.25 1397.5,-240.25 1404.5,-240.25"/>
</g>
<!-- node18 -->
<g id="node27" class="node">
<title>node18</title>
<polygon fill="none" stroke="black" points="1486.35,-467.85 1486.35,-489.42 1408.23,-504.68 1297.77,-504.68 1219.65,-489.42 1219.65,-467.85 1297.77,-452.59 1408.23,-452.59 1486.35,-467.85"/>
<text text-anchor="middle" x="1353" y="-482.04" font-family="Times New Roman,serif" font-size="12.00">DepthQualityAssessorLib</text>
<text text-anchor="middle" x="1353" y="-469.04" font-family="Times New Roman,serif" font-size="12.00">(TMIV::DepthQualityAssessorLib)</text>
</g>
<!-- node18&#45;&gt;node16 -->
<g id="edge28" class="edge">
<title>node18&#45;&gt;node16</title>
<path fill="none" stroke="black" d="M1411.21,-453.16C1439.15,-441.41 1472.56,-427.36 1500.64,-415.55"/>
<polygon fill="black" stroke="black" points="1502.08,-418.74 1509.94,-411.64 1499.37,-412.29 1502.08,-418.74"/>
</g>
<!-- node19 -->
<g id="node28" class="node">
<title>node19</title>
<polygon fill="none" stroke="black" points="568.34,-656.47 570.55,-656.57 572.74,-656.72 574.9,-656.91 577.02,-657.16 579.09,-657.45 581.1,-657.79 583.04,-658.17 584.92,-658.6 586.71,-659.07 588.42,-659.58 590.04,-660.14 591.56,-660.73 592.97,-661.36 594.28,-662.03 595.48,-662.73 596.57,-663.46 597.55,-664.22 598.4,-665.01 599.14,-665.83 599.76,-666.67 600.26,-667.53 600.65,-668.41 600.92,-669.31 601.07,-670.22 601.11,-671.14 601.04,-672.07 600.87,-673.01 600.59,-673.95 600.21,-674.89 599.74,-675.83 599.18,-676.77 598.53,-677.7 597.8,-678.62 597,-679.53 596.12,-680.43 595.17,-681.31 594.17,-682.17 593.1,-683.01 591.99,-683.83 590.83,-684.62 589.62,-685.38 588.37,-686.12 587.09,-686.82 585.78,-687.48 584.45,-688.11 583.08,-688.71 581.7,-689.26 580.3,-689.77 578.88,-690.25 577.45,-690.67 576.01,-691.06 574.56,-691.39 573.1,-691.69 571.63,-691.93 570.16,-692.13 568.69,-692.27 567.22,-692.37 565.74,-692.42 564.26,-692.42 562.78,-692.37 561.31,-692.27 559.84,-692.13 558.37,-691.93 556.9,-691.69 555.44,-691.39 553.99,-691.06 552.55,-690.67 551.12,-690.25 549.7,-689.77 548.3,-689.26 546.92,-688.71 545.55,-688.11 544.22,-687.48 542.91,-686.82 541.63,-686.12 540.38,-685.38 539.17,-684.62 538.01,-683.83 536.9,-683.01 535.83,-682.17 534.83,-681.31 533.88,-680.43 533,-679.53 532.2,-678.62 531.47,-677.7 530.82,-676.77 530.26,-675.83 529.79,-674.89 529.41,-673.95 529.13,-673.01 528.96,-672.07 528.89,-671.14 528.93,-670.22 529.08,-669.31 529.35,-668.41 529.74,-667.53 530.24,-666.67 530.86,-665.83 531.6,-665.01 532.45,-664.22 533.43,-663.46 534.52,-662.73 535.72,-662.03 537.03,-661.36 538.44,-660.73 539.96,-660.14 541.58,-659.58 543.29,-659.07 545.08,-658.6 546.96,-658.17 548.9,-657.79 550.91,-657.45 552.98,-657.16 555.1,-656.91 557.26,-656.72 559.45,-656.57 561.66,-656.47 563.88,-656.42 566.12,-656.42 568.34,-656.47"/>
<text text-anchor="middle" x="565" y="-671.32" font-family="Times New Roman,serif" font-size="12.00">Encoder</text>
</g>
<!-- node19&#45;&gt;node15 -->
<g id="edge40" class="edge">
<title>node19&#45;&gt;node15</title>
<path fill="none" stroke="black" stroke-dasharray="1,5" d="M564.82,-656.15C564.34,-610.78 563.03,-487.49 562.38,-426.18"/>
<polygon fill="black" stroke="black" points="565.87,-425.81 562.27,-415.84 558.87,-425.88 565.87,-425.81"/>
</g>
<!-- node20 -->
<g id="node29" class="node">
<title>node20</title>
<polygon fill="none" stroke="black" points="1566.91,-570.89 1566.91,-592.47 1517.17,-607.73 1446.83,-607.73 1397.09,-592.47 1397.09,-570.89 1446.83,-555.64 1517.17,-555.64 1566.91,-570.89"/>
<text text-anchor="middle" x="1482" y="-585.08" font-family="Times New Roman,serif" font-size="12.00">EncoderLib</text>
<text text-anchor="middle" x="1482" y="-572.08" font-family="Times New Roman,serif" font-size="12.00">(TMIV::EncoderLib)</text>
</g>
<!-- node19&#45;&gt;node20 -->
<g id="edge39" class="edge">
<title>node19&#45;&gt;node20</title>
<path fill="none" stroke="black" stroke-dasharray="1,5" d="M601.23,-669.84C732.71,-656.83 1187.4,-611.83 1386.91,-592.09"/>
<polygon fill="black" stroke="black" points="1387.47,-595.55 1397.08,-591.08 1386.78,-588.59 1387.47,-595.55"/>
</g>
<!-- node20&#45;&gt;node0 -->
<g id="edge29" class="edge">
<title>node20&#45;&gt;node0</title>
<path fill="none" stroke="black" d="M1566.96,-578.54C1729.96,-573.36 2097.46,-556.46 2402,-504.66 2410.87,-503.15 2420.12,-501.31 2429.27,-499.33"/>
<polygon fill="black" stroke="black" points="2430.14,-502.72 2439.14,-497.13 2428.62,-495.89 2430.14,-502.72"/>
</g>
<!-- node20&#45;&gt;node18 -->
<g id="edge30" class="edge">
<title>node20&#45;&gt;node18</title>
<path fill="none" stroke="black" d="M1449.78,-555.44C1432.7,-542.06 1411.54,-525.49 1393.37,-511.26"/>
<polygon fill="black" stroke="black" points="1395.29,-508.31 1385.26,-504.9 1390.97,-513.82 1395.29,-508.31"/>
</g>
<!-- node21 -->
<g id="node30" class="node">
<title>node21</title>
<polygon fill="none" stroke="black" points="1277.45,-286.06 1277.45,-307.64 1205.13,-322.9 1102.87,-322.9 1030.55,-307.64 1030.55,-286.06 1102.87,-270.81 1205.13,-270.81 1277.45,-286.06"/>
<text text-anchor="middle" x="1154" y="-300.25" font-family="Times New Roman,serif" font-size="12.00">GeometryQuantizerLib</text>
<text text-anchor="middle" x="1154" y="-287.25" font-family="Times New Roman,serif" font-size="12.00">(TMIV::GeometryQuantizerLib)</text>
</g>
<!-- node20&#45;&gt;node21 -->
<g id="edge32" class="edge">
<title>node20&#45;&gt;node21</title>
<path fill="none" stroke="black" d="M1402.5,-569.14C1331.16,-556.96 1234.21,-535.28 1211,-504.66 1197.03,-486.23 1196.92,-470.97 1211,-452.61 1249.65,-402.23 1310.35,-465.99 1349,-415.61 1363.08,-397.26 1362.49,-382.36 1349,-363.57 1336.31,-345.9 1291.56,-330.17 1248.13,-318.53"/>
<polygon fill="black" stroke="black" points="1248.87,-315.11 1238.31,-315.96 1247.1,-321.88 1248.87,-315.11"/>
</g>
<!-- node22 -->
<g id="node31" class="node">
<title>node22</title>
<polygon fill="none" stroke="black" points="2393.23,-467.85 2393.23,-489.42 2346.23,-504.68 2279.77,-504.68 2232.77,-489.42 2232.77,-467.85 2279.77,-452.59 2346.23,-452.59 2393.23,-467.85"/>
<text text-anchor="middle" x="2313" y="-482.04" font-family="Times New Roman,serif" font-size="12.00">PackerLib</text>
<text text-anchor="middle" x="2313" y="-469.04" font-family="Times New Roman,serif" font-size="12.00">(TMIV::PackerLib)</text>
</g>
<!-- node20&#45;&gt;node22 -->
<g id="edge34" class="edge">
<title>node20&#45;&gt;node22</title>
<path fill="none" stroke="black" d="M1566.98,-576.73C1705.58,-569.23 1988.5,-549.48 2224,-504.66 2231.35,-503.26 2238.96,-501.54 2246.51,-499.67"/>
<polygon fill="black" stroke="black" points="2247.56,-503.01 2256.37,-497.13 2245.81,-496.23 2247.56,-503.01"/>
</g>
<!-- node23 -->
<g id="node32" class="node">
<title>node23</title>
<polygon fill="none" stroke="black" points="1895.67,-467.85 1895.67,-489.42 1849.58,-504.68 1784.42,-504.68 1738.33,-489.42 1738.33,-467.85 1784.42,-452.59 1849.58,-452.59 1895.67,-467.85"/>
<text text-anchor="middle" x="1817" y="-482.04" font-family="Times New Roman,serif" font-size="12.00">PrunerLib</text>
<text text-anchor="middle" x="1817" y="-469.04" font-family="Times New Roman,serif" font-size="12.00">(TMIV::PrunerLib)</text>
</g>
<!-- node20&#45;&gt;node23 -->
<g id="edge36" class="edge">
<title>node20&#45;&gt;node23</title>
<path fill="none" stroke="black" d="M1541.12,-562.85C1599.66,-545.19 1689.15,-518.2 1750.22,-499.78"/>
<polygon fill="black" stroke="black" points="1751.58,-503.02 1760.15,-496.78 1749.56,-496.32 1751.58,-503.02"/>
</g>
<!-- node24 -->
<g id="node33" class="node">
<title>node24</title>
<polygon fill="none" stroke="black" points="1719.83,-467.85 1719.83,-489.42 1656.67,-504.68 1567.33,-504.68 1504.17,-489.42 1504.17,-467.85 1567.33,-452.59 1656.67,-452.59 1719.83,-467.85"/>
<text text-anchor="middle" x="1612" y="-482.04" font-family="Times New Roman,serif" font-size="12.00">ViewOptimizerLib</text>
<text text-anchor="middle" x="1612" y="-469.04" font-family="Times New Roman,serif" font-size="12.00">(TMIV::ViewOptimizerLib)</text>
</g>
<!-- node20&#45;&gt;node24 -->
<g id="edge38" class="edge">
<title>node20&#45;&gt;node24</title>
<path fill="none" stroke="black" d="M1514.47,-555.44C1531.69,-542.06 1553.01,-525.49 1571.32,-511.26"/>
<polygon fill="black" stroke="black" points="1573.75,-513.8 1579.49,-504.9 1569.45,-508.28 1573.75,-513.8"/>
</g>
<!-- node21&#45;&gt;node4 -->
<g id="edge31" class="edge">
<title>node21&#45;&gt;node4</title>
<path fill="none" stroke="black" d="M1216.01,-273.07C1251.82,-259.92 1296.9,-243.36 1333.58,-229.88"/>
<polygon fill="black" stroke="black" points="1335.03,-233.08 1343.21,-226.34 1332.61,-226.51 1335.03,-233.08"/>
</g>
<!-- node22&#45;&gt;node4 -->
<g id="edge33" class="edge">
<title>node22&#45;&gt;node4</title>
<path fill="none" stroke="black" d="M2254.21,-460.83C2234.96,-454.09 2213.92,-445.34 2196,-434.61 2155.2,-410.2 2157.11,-387.48 2116,-363.57 1924.09,-251.96 1661.33,-218.88 1513.66,-209.13"/>
<polygon fill="black" stroke="black" points="1513.87,-205.64 1503.66,-208.5 1513.42,-212.63 1513.87,-205.64"/>
</g>
<!-- node23&#45;&gt;node16 -->
<g id="edge35" class="edge">
<title>node23&#45;&gt;node16</title>
<path fill="none" stroke="black" d="M1763.44,-459.49C1723.59,-446 1668.95,-427.49 1626.34,-413.06"/>
<polygon fill="black" stroke="black" points="1627.21,-409.66 1616.61,-409.77 1624.96,-416.29 1627.21,-409.66"/>
</g>
<!-- node24&#45;&gt;node16 -->
<g id="edge37" class="edge">
<title>node24&#45;&gt;node16</title>
<path fill="none" stroke="black" d="M1596.96,-452.46C1591.73,-443.71 1585.78,-433.75 1580.2,-424.41"/>
<polygon fill="black" stroke="black" points="1583.14,-422.5 1575.01,-415.71 1577.13,-426.09 1583.14,-422.5"/>
</g>
<!-- node25 -->
<g id="node34" class="node">
<title>node25</title>
<polygon fill="none" stroke="black" points="969.58,-371.64 974.6,-371.74 979.56,-371.89 984.45,-372.08 989.25,-372.33 993.94,-372.62 998.5,-372.96 1002.92,-373.34 1007.17,-373.77 1011.23,-374.24 1015.11,-374.75 1018.77,-375.31 1022.22,-375.9 1025.43,-376.53 1028.41,-377.2 1031.13,-377.9 1033.6,-378.63 1035.81,-379.39 1037.75,-380.18 1039.42,-381 1040.83,-381.84 1041.97,-382.7 1042.84,-383.58 1043.45,-384.48 1043.8,-385.39 1043.89,-386.31 1043.74,-387.24 1043.34,-388.18 1042.71,-389.12 1041.86,-390.06 1040.79,-391 1039.51,-391.94 1038.04,-392.87 1036.39,-393.79 1034.56,-394.71 1032.57,-395.6 1030.43,-396.48 1028.14,-397.34 1025.73,-398.18 1023.2,-399 1020.57,-399.79 1017.83,-400.55 1015.01,-401.29 1012.1,-401.99 1009.13,-402.65 1006.1,-403.28 1003.01,-403.88 999.87,-404.43 996.69,-404.94 993.48,-405.42 990.23,-405.84 986.96,-406.23 983.67,-406.56 980.36,-406.86 977.04,-407.1 973.71,-407.3 970.37,-407.44 967.02,-407.54 963.68,-407.59 960.32,-407.59 956.98,-407.54 953.63,-407.44 950.29,-407.3 946.96,-407.1 943.64,-406.86 940.33,-406.56 937.04,-406.23 933.77,-405.84 930.52,-405.42 927.31,-404.94 924.13,-404.43 920.99,-403.88 917.9,-403.28 914.87,-402.65 911.9,-401.99 908.99,-401.29 906.17,-400.55 903.43,-399.79 900.8,-399 898.27,-398.18 895.86,-397.34 893.57,-396.48 891.43,-395.6 889.44,-394.71 887.61,-393.79 885.96,-392.87 884.49,-391.94 883.21,-391 882.14,-390.06 881.29,-389.12 880.66,-388.18 880.26,-387.24 880.11,-386.31 880.2,-385.39 880.55,-384.48 881.16,-383.58 882.03,-382.7 883.17,-381.84 884.58,-381 886.25,-380.18 888.19,-379.39 890.4,-378.63 892.87,-377.9 895.59,-377.2 898.57,-376.53 901.78,-375.9 905.23,-375.31 908.89,-374.75 912.77,-374.24 916.83,-373.77 921.08,-373.34 925.5,-372.96 930.06,-372.62 934.75,-372.33 939.55,-372.08 944.44,-371.89 949.4,-371.74 954.42,-371.64 959.47,-371.59 964.53,-371.59 969.58,-371.64"/>
<text text-anchor="middle" x="962" y="-386.49" font-family="Times New Roman,serif" font-size="12.00">GeometryQuantizerTest</text>
</g>
<!-- node25&#45;&gt;node5 -->
<g id="edge41" class="edge">
<title>node25&#45;&gt;node5</title>
<path fill="none" stroke="black" stroke-dasharray="1,5" d="M955.98,-371.52C952.26,-360.97 947.34,-347.01 942.78,-334.09"/>
<polygon fill="black" stroke="black" points="946.02,-332.74 939.39,-324.48 939.41,-335.07 946.02,-332.74"/>
</g>
<!-- node25&#45;&gt;node21 -->
<g id="edge42" class="edge">
<title>node25&#45;&gt;node21</title>
<path fill="none" stroke="black" stroke-dasharray="1,5" d="M995.88,-372.58C1022.44,-360.03 1060.1,-342.23 1092.01,-327.15"/>
<polygon fill="black" stroke="black" points="1093.73,-330.21 1101.27,-322.77 1090.74,-323.88 1093.73,-330.21"/>
</g>
<!-- node26 -->
<g id="node35" class="node">
<title>node26</title>
<polygon fill="none" stroke="black" points="1281.89,-371.64 1285.79,-371.74 1289.66,-371.89 1293.46,-372.08 1297.19,-372.33 1300.84,-372.62 1304.39,-372.96 1307.82,-373.34 1311.12,-373.77 1314.29,-374.24 1317.3,-374.75 1320.15,-375.31 1322.83,-375.9 1325.33,-376.53 1327.64,-377.2 1329.76,-377.9 1331.68,-378.63 1333.39,-379.39 1334.9,-380.18 1336.21,-381 1337.3,-381.84 1338.18,-382.7 1338.86,-383.58 1339.34,-384.48 1339.61,-385.39 1339.68,-386.31 1339.56,-387.24 1339.25,-388.18 1338.76,-389.12 1338.1,-390.06 1337.26,-391 1336.27,-391.94 1335.13,-392.87 1333.84,-393.79 1332.42,-394.71 1330.87,-395.6 1329.21,-396.48 1327.43,-397.34 1325.56,-398.18 1323.59,-399 1321.54,-399.79 1319.41,-400.55 1317.22,-401.29 1314.96,-401.99 1312.65,-402.65 1310.29,-403.28 1307.89,-403.88 1305.45,-404.43 1302.98,-404.94 1300.48,-405.42 1297.95,-405.84 1295.41,-406.23 1292.85,-406.56 1290.28,-406.86 1287.7,-407.1 1285.11,-407.3 1282.51,-407.44 1279.91,-407.54 1277.3,-407.59 1274.7,-407.59 1272.09,-407.54 1269.49,-407.44 1266.89,-407.3 1264.3,-407.1 1261.72,-406.86 1259.15,-406.56 1256.59,-406.23 1254.05,-405.84 1251.52,-405.42 1249.02,-404.94 1246.55,-404.43 1244.11,-403.88 1241.71,-403.28 1239.35,-402.65 1237.04,-401.99 1234.78,-401.29 1232.59,-400.55 1230.46,-399.79 1228.41,-399 1226.44,-398.18 1224.57,-397.34 1222.79,-396.48 1221.13,-395.6 1219.58,-394.71 1218.16,-393.79 1216.87,-392.87 1215.73,-391.94 1214.74,-391 1213.9,-390.06 1213.24,-389.12 1212.75,-388.18 1212.44,-387.24 1212.32,-386.31 1212.39,-385.39 1212.66,-384.48 1213.14,-383.58 1213.82,-382.7 1214.7,-381.84 1215.79,-381 1217.1,-380.18 1218.61,-379.39 1220.32,-378.63 1222.24,-377.9 1224.36,-377.2 1226.67,-376.53 1229.17,-375.9 1231.85,-375.31 1234.7,-374.75 1237.71,-374.24 1240.88,-373.77 1244.18,-373.34 1247.61,-372.96 1251.16,-372.62 1254.81,-372.33 1258.54,-372.08 1262.34,-371.89 1266.21,-371.74 1270.11,-371.64 1274.03,-371.59 1277.97,-371.59 1281.89,-371.64"/>
<text text-anchor="middle" x="1276" y="-386.49" font-family="Times New Roman,serif" font-size="12.00">MivBitstreamTest</text>
</g>
<!-- node26&#45;&gt;node4 -->
<g id="edge44" class="edge">
<title>node26&#45;&gt;node4</title>
<path fill="none" stroke="black" stroke-dasharray="1,5" d="M1336.89,-381.33C1400.56,-372.34 1494.23,-354.68 1516,-326.57 1532.17,-305.68 1529.54,-289.82 1516,-267.13 1506.34,-250.95 1490.83,-238.73 1474.29,-229.62"/>
<polygon fill="black" stroke="black" points="1475.52,-226.32 1465.02,-224.87 1472.32,-232.54 1475.52,-226.32"/>
</g>
<!-- node26&#45;&gt;node5 -->
<g id="edge43" class="edge">
<title>node26&#45;&gt;node5</title>
<path fill="none" stroke="black" stroke-dasharray="1,5" d="M1237.27,-374.28C1226.28,-370.5 1214.25,-366.63 1203,-363.57 1123.78,-341.99 1101.51,-347.05 1022,-326.57 1011.46,-323.85 1000.33,-320.66 989.59,-317.41"/>
<polygon fill="black" stroke="black" points="990.46,-314.02 979.87,-314.43 988.4,-320.71 990.46,-314.02"/>
</g>
<!-- node27 -->
<g id="node36" class="node">
<title>node27</title>
<polygon fill="none" stroke="black" points="1031.49,-656.47 1034.46,-656.57 1037.41,-656.72 1040.3,-656.91 1043.15,-657.16 1045.93,-657.45 1048.63,-657.79 1051.25,-658.17 1053.76,-658.6 1056.17,-659.07 1058.47,-659.58 1060.64,-660.14 1062.68,-660.73 1064.59,-661.36 1066.35,-662.03 1067.96,-662.73 1069.42,-663.46 1070.73,-664.22 1071.88,-665.01 1072.88,-665.83 1073.71,-666.67 1074.38,-667.53 1074.9,-668.41 1075.26,-669.31 1075.47,-670.22 1075.52,-671.14 1075.43,-672.07 1075.2,-673.01 1074.82,-673.95 1074.32,-674.89 1073.68,-675.83 1072.93,-676.77 1072.06,-677.7 1071.08,-678.62 1069.99,-679.53 1068.81,-680.43 1067.54,-681.31 1066.19,-682.17 1064.76,-683.01 1063.27,-683.83 1061.7,-684.62 1060.08,-685.38 1058.41,-686.12 1056.69,-686.82 1054.93,-687.48 1053.13,-688.11 1051.3,-688.71 1049.44,-689.26 1047.56,-689.77 1045.65,-690.25 1043.73,-690.67 1041.79,-691.06 1039.84,-691.39 1037.88,-691.69 1035.91,-691.93 1033.94,-692.13 1031.96,-692.27 1029.98,-692.37 1027.99,-692.42 1026.01,-692.42 1024.02,-692.37 1022.04,-692.27 1020.06,-692.13 1018.09,-691.93 1016.12,-691.69 1014.16,-691.39 1012.21,-691.06 1010.27,-690.67 1008.35,-690.25 1006.44,-689.77 1004.56,-689.26 1002.7,-688.71 1000.87,-688.11 999.07,-687.48 997.31,-686.82 995.59,-686.12 993.92,-685.38 992.3,-684.62 990.73,-683.83 989.24,-683.01 987.81,-682.17 986.46,-681.31 985.19,-680.43 984.01,-679.53 982.92,-678.62 981.94,-677.7 981.07,-676.77 980.32,-675.83 979.68,-674.89 979.18,-673.95 978.8,-673.01 978.57,-672.07 978.48,-671.14 978.53,-670.22 978.74,-669.31 979.1,-668.41 979.62,-667.53 980.29,-666.67 981.12,-665.83 982.12,-665.01 983.27,-664.22 984.58,-663.46 986.04,-662.73 987.65,-662.03 989.41,-661.36 991.32,-660.73 993.36,-660.14 995.53,-659.58 997.83,-659.07 1000.24,-658.6 1002.75,-658.17 1005.37,-657.79 1008.07,-657.45 1010.85,-657.16 1013.7,-656.91 1016.59,-656.72 1019.54,-656.57 1022.51,-656.47 1025.5,-656.42 1028.5,-656.42 1031.49,-656.47"/>
<text text-anchor="middle" x="1027" y="-671.32" font-family="Times New Roman,serif" font-size="12.00">MpiEncoder</text>
</g>
<!-- node27&#45;&gt;node15 -->
<g id="edge46" class="edge">
<title>node27&#45;&gt;node15</title>
<path fill="none" stroke="black" stroke-dasharray="1,5" d="M979.05,-668.32C891.72,-656.37 706.84,-618.38 610,-504.66 599.41,-492.22 584.46,-454.31 574.07,-425.58"/>
<polygon fill="black" stroke="black" points="577.26,-424.1 570.6,-415.85 570.67,-426.45 577.26,-424.1"/>
</g>
<!-- node27&#45;&gt;node20 -->
<g id="edge45" class="edge">
<title>node27&#45;&gt;node20</title>
<path fill="none" stroke="black" stroke-dasharray="1,5" d="M1053.14,-658.36C1062.87,-653.33 1074.18,-648.14 1085,-644.7 1185.27,-612.88 1305.16,-597.02 1386.77,-589.37"/>
<polygon fill="black" stroke="black" points="1387.39,-592.83 1397.03,-588.43 1386.75,-585.86 1387.39,-592.83"/>
</g>
<!-- node28 -->
<g id="node37" class="node">
<title>node28</title>
<polygon fill="none" stroke="black" points="668.13,-460.69 670.87,-460.78 673.58,-460.93 676.24,-461.13 678.86,-461.37 681.42,-461.66 683.91,-462 686.31,-462.38 688.63,-462.81 690.85,-463.28 692.96,-463.8 694.96,-464.35 696.84,-464.94 698.59,-465.58 700.21,-466.24 701.7,-466.94 703.04,-467.67 704.25,-468.44 705.31,-469.23 706.22,-470.04 706.99,-470.88 707.61,-471.75 708.08,-472.63 708.42,-473.52 708.61,-474.43 708.66,-475.36 708.57,-476.29 708.36,-477.22 708.01,-478.17 707.55,-479.11 706.96,-480.05 706.27,-480.99 705.47,-481.92 704.56,-482.84 703.57,-483.75 702.48,-484.65 701.31,-485.53 700.07,-486.39 698.75,-487.23 697.38,-488.04 695.94,-488.84 694.45,-489.6 692.91,-490.33 691.32,-491.03 689.7,-491.7 688.05,-492.33 686.36,-492.92 684.65,-493.48 682.92,-493.99 681.16,-494.46 679.4,-494.89 677.61,-495.27 675.82,-495.61 674.01,-495.9 672.2,-496.15 670.39,-496.34 668.56,-496.49 666.74,-496.59 664.91,-496.64 663.09,-496.64 661.26,-496.59 659.44,-496.49 657.61,-496.34 655.8,-496.15 653.99,-495.9 652.18,-495.61 650.39,-495.27 648.6,-494.89 646.84,-494.46 645.08,-493.99 643.35,-493.48 641.64,-492.92 639.95,-492.33 638.3,-491.7 636.68,-491.03 635.09,-490.33 633.55,-489.6 632.06,-488.84 630.62,-488.04 629.25,-487.23 627.93,-486.39 626.69,-485.53 625.52,-484.65 624.43,-483.75 623.44,-482.84 622.53,-481.92 621.73,-480.99 621.04,-480.05 620.45,-479.11 619.99,-478.17 619.64,-477.22 619.43,-476.29 619.34,-475.36 619.39,-474.43 619.58,-473.52 619.92,-472.63 620.39,-471.75 621.01,-470.88 621.78,-470.04 622.69,-469.23 623.75,-468.44 624.96,-467.67 626.3,-466.94 627.79,-466.24 629.41,-465.58 631.16,-464.94 633.04,-464.35 635.04,-463.8 637.15,-463.28 639.37,-462.81 641.69,-462.38 644.09,-462 646.58,-461.66 649.14,-461.37 651.76,-461.13 654.42,-460.93 657.13,-460.78 659.87,-460.69 662.62,-460.64 665.38,-460.64 668.13,-460.69"/>
<text text-anchor="middle" x="664" y="-475.54" font-family="Times New Roman,serif" font-size="12.00">Multiplexer</text>
</g>
<!-- node28&#45;&gt;node4 -->
<g id="edge48" class="edge">
<title>node28&#45;&gt;node4</title>
<path fill="none" stroke="black" stroke-dasharray="1,5" d="M662.03,-460.38C658.35,-418.59 655.76,-312.09 718,-267.13 763.09,-234.57 1106.18,-216.5 1288.27,-209.12"/>
<polygon fill="black" stroke="black" points="1288.57,-212.61 1298.42,-208.71 1288.29,-205.61 1288.57,-212.61"/>
</g>
<!-- node28&#45;&gt;node15 -->
<g id="edge47" class="edge">
<title>node28&#45;&gt;node15</title>
<path fill="none" stroke="black" stroke-dasharray="1,5" d="M645.29,-461.67C632.36,-450.64 614.73,-435.59 599.01,-422.18"/>
<polygon fill="black" stroke="black" points="600.89,-419.17 591.01,-415.35 596.34,-424.5 600.89,-419.17"/>
</g>
<!-- node29 -->
<g id="node38" class="node">
<title>node29</title>
<polygon fill="none" stroke="black" points="1795.81,-278.9 1797.66,-279 1799.5,-279.15 1801.31,-279.34 1803.09,-279.59 1804.82,-279.88 1806.51,-280.22 1808.15,-280.6 1809.72,-281.03 1811.22,-281.5 1812.66,-282.01 1814.02,-282.57 1815.29,-283.16 1816.48,-283.79 1817.58,-284.46 1818.59,-285.16 1819.5,-285.89 1820.32,-286.65 1821.04,-287.44 1821.66,-288.26 1822.18,-289.1 1822.6,-289.96 1822.92,-290.84 1823.15,-291.74 1823.28,-292.65 1823.31,-293.57 1823.26,-294.5 1823.11,-295.44 1822.88,-296.38 1822.56,-297.32 1822.16,-298.26 1821.69,-299.2 1821.15,-300.13 1820.53,-301.06 1819.86,-301.97 1819.12,-302.86 1818.33,-303.74 1817.48,-304.6 1816.59,-305.44 1815.66,-306.26 1814.68,-307.05 1813.67,-307.81 1812.62,-308.55 1811.55,-309.25 1810.45,-309.91 1809.32,-310.54 1808.18,-311.14 1807.02,-311.69 1805.84,-312.2 1804.65,-312.68 1803.45,-313.1 1802.24,-313.49 1801.02,-313.83 1799.8,-314.12 1798.57,-314.36 1797.33,-314.56 1796.1,-314.7 1794.86,-314.8 1793.62,-314.85 1792.38,-314.85 1791.14,-314.8 1789.9,-314.7 1788.67,-314.56 1787.43,-314.36 1786.2,-314.12 1784.98,-313.83 1783.76,-313.49 1782.55,-313.1 1781.35,-312.68 1780.16,-312.2 1778.98,-311.69 1777.82,-311.14 1776.68,-310.54 1775.55,-309.91 1774.45,-309.25 1773.38,-308.55 1772.33,-307.81 1771.32,-307.05 1770.34,-306.26 1769.41,-305.44 1768.52,-304.6 1767.67,-303.74 1766.88,-302.86 1766.14,-301.97 1765.47,-301.06 1764.85,-300.13 1764.31,-299.2 1763.84,-298.26 1763.44,-297.32 1763.12,-296.38 1762.89,-295.44 1762.74,-294.5 1762.69,-293.57 1762.72,-292.65 1762.85,-291.74 1763.08,-290.84 1763.4,-289.96 1763.82,-289.1 1764.34,-288.26 1764.96,-287.44 1765.68,-286.65 1766.5,-285.89 1767.41,-285.16 1768.42,-284.46 1769.52,-283.79 1770.71,-283.16 1771.98,-282.57 1773.34,-282.01 1774.78,-281.5 1776.28,-281.03 1777.85,-280.6 1779.49,-280.22 1781.18,-279.88 1782.91,-279.59 1784.69,-279.34 1786.5,-279.15 1788.34,-279 1790.19,-278.9 1792.06,-278.85 1793.94,-278.85 1795.81,-278.9"/>
<text text-anchor="middle" x="1793" y="-293.75" font-family="Times New Roman,serif" font-size="12.00">Parser</text>
</g>
<!-- node29&#45;&gt;node4 -->
<g id="edge49" class="edge">
<title>node29&#45;&gt;node4</title>
<path fill="none" stroke="black" stroke-dasharray="1,5" d="M1782.39,-279.31C1774.54,-268.55 1762.83,-255.24 1749,-248.13 1709.02,-227.6 1599.39,-216.44 1513.76,-210.67"/>
<polygon fill="black" stroke="black" points="1513.91,-207.18 1503.7,-210.01 1513.45,-214.16 1513.91,-207.18"/>
</g>
<!-- node30 -->
<g id="node39" class="node">
<title>node30</title>
<polygon fill="none" stroke="black" points="1031.6,-563.73 1033.98,-563.83 1036.33,-563.98 1038.65,-564.17 1040.93,-564.42 1043.16,-564.71 1045.32,-565.05 1047.42,-565.43 1049.43,-565.86 1051.36,-566.33 1053.2,-566.84 1054.94,-567.4 1056.57,-567.99 1058.1,-568.62 1059.51,-569.29 1060.8,-569.99 1061.97,-570.72 1063.02,-571.48 1063.94,-572.27 1064.74,-573.09 1065.4,-573.93 1065.95,-574.79 1066.36,-575.67 1066.65,-576.57 1066.81,-577.48 1066.86,-578.4 1066.78,-579.33 1066.6,-580.27 1066.3,-581.21 1065.89,-582.15 1065.38,-583.09 1064.78,-584.03 1064.08,-584.96 1063.3,-585.88 1062.43,-586.8 1061.48,-587.69 1060.47,-588.57 1059.39,-589.43 1058.24,-590.27 1057.04,-591.09 1055.79,-591.88 1054.49,-592.64 1053.15,-593.38 1051.77,-594.08 1050.36,-594.74 1048.92,-595.37 1047.46,-595.97 1045.97,-596.52 1044.46,-597.03 1042.94,-597.51 1041.4,-597.93 1039.84,-598.32 1038.28,-598.65 1036.71,-598.95 1035.14,-599.19 1033.56,-599.39 1031.97,-599.53 1030.38,-599.63 1028.79,-599.68 1027.21,-599.68 1025.62,-599.63 1024.03,-599.53 1022.44,-599.39 1020.86,-599.19 1019.29,-598.95 1017.72,-598.65 1016.16,-598.32 1014.6,-597.93 1013.06,-597.51 1011.54,-597.03 1010.03,-596.52 1008.54,-595.97 1007.08,-595.37 1005.64,-594.74 1004.23,-594.08 1002.85,-593.38 1001.51,-592.64 1000.21,-591.88 998.96,-591.09 997.76,-590.27 996.61,-589.43 995.53,-588.57 994.52,-587.69 993.57,-586.8 992.7,-585.88 991.92,-584.96 991.22,-584.03 990.62,-583.09 990.11,-582.15 989.7,-581.21 989.4,-580.27 989.22,-579.33 989.14,-578.4 989.19,-577.48 989.35,-576.57 989.64,-575.67 990.05,-574.79 990.6,-573.93 991.26,-573.09 992.06,-572.27 992.98,-571.48 994.03,-570.72 995.2,-569.99 996.49,-569.29 997.9,-568.62 999.43,-567.99 1001.06,-567.4 1002.8,-566.84 1004.64,-566.33 1006.57,-565.86 1008.58,-565.43 1010.68,-565.05 1012.84,-564.71 1015.07,-564.42 1017.35,-564.17 1019.67,-563.98 1022.02,-563.83 1024.4,-563.73 1026.8,-563.68 1029.2,-563.68 1031.6,-563.73"/>
<text text-anchor="middle" x="1028" y="-578.58" font-family="Times New Roman,serif" font-size="12.00">Renderer</text>
</g>
<!-- node30&#45;&gt;node14 -->
<g id="edge51" class="edge">
<title>node30&#45;&gt;node14</title>
<path fill="none" stroke="black" stroke-dasharray="1,5" d="M1013.38,-564.45C1000.83,-550.51 982.35,-529.99 966.71,-512.63"/>
<polygon fill="black" stroke="black" points="969.05,-509.99 959.76,-504.91 963.85,-514.68 969.05,-509.99"/>
</g>
<!-- node30&#45;&gt;node18 -->
<g id="edge50" class="edge">
<title>node30&#45;&gt;node18</title>
<path fill="none" stroke="black" stroke-dasharray="1,5" d="M1051.62,-566.27C1074.12,-553.13 1109.29,-534.08 1142,-522.66 1172.65,-511.95 1206.79,-503.56 1238.53,-497.14"/>
<polygon fill="black" stroke="black" points="1239.6,-500.5 1248.74,-495.13 1238.25,-493.63 1239.6,-500.5"/>
</g>
<!-- node31 -->
<g id="node40" class="node">
<title>node31</title>
<polygon fill="none" stroke="black" points="858.25,-563.73 862.39,-563.83 866.48,-563.98 870.52,-564.17 874.48,-564.42 878.35,-564.71 882.11,-565.05 885.75,-565.43 889.25,-565.86 892.61,-566.33 895.8,-566.84 898.83,-567.4 901.67,-567.99 904.32,-568.62 906.77,-569.29 909.02,-569.99 911.06,-570.72 912.88,-571.48 914.48,-572.27 915.86,-573.09 917.02,-573.93 917.96,-574.79 918.68,-575.67 919.18,-576.57 919.47,-577.48 919.55,-578.4 919.42,-579.33 919.09,-580.27 918.57,-581.21 917.87,-582.15 916.98,-583.09 915.93,-584.03 914.72,-584.96 913.36,-585.88 911.85,-586.8 910.21,-587.69 908.44,-588.57 906.56,-589.43 904.57,-590.27 902.48,-591.09 900.31,-591.88 898.05,-592.64 895.72,-593.38 893.33,-594.08 890.88,-594.74 888.37,-595.37 885.82,-595.97 883.24,-596.52 880.61,-597.03 877.96,-597.51 875.29,-597.93 872.59,-598.32 869.88,-598.65 867.15,-598.95 864.41,-599.19 861.66,-599.39 858.9,-599.53 856.14,-599.63 853.38,-599.68 850.62,-599.68 847.86,-599.63 845.1,-599.53 842.34,-599.39 839.59,-599.19 836.85,-598.95 834.12,-598.65 831.41,-598.32 828.71,-597.93 826.04,-597.51 823.39,-597.03 820.76,-596.52 818.18,-595.97 815.63,-595.37 813.12,-594.74 810.67,-594.08 808.28,-593.38 805.95,-592.64 803.69,-591.88 801.52,-591.09 799.43,-590.27 797.44,-589.43 795.56,-588.57 793.79,-587.69 792.15,-586.8 790.64,-585.88 789.28,-584.96 788.07,-584.03 787.02,-583.09 786.13,-582.15 785.43,-581.21 784.91,-580.27 784.58,-579.33 784.45,-578.4 784.53,-577.48 784.82,-576.57 785.32,-575.67 786.04,-574.79 786.98,-573.93 788.14,-573.09 789.52,-572.27 791.12,-571.48 792.94,-570.72 794.98,-569.99 797.23,-569.29 799.68,-568.62 802.33,-567.99 805.17,-567.4 808.2,-566.84 811.39,-566.33 814.75,-565.86 818.25,-565.43 821.89,-565.05 825.65,-564.71 829.52,-564.42 833.48,-564.17 837.52,-563.98 841.61,-563.83 845.75,-563.73 849.91,-563.68 854.09,-563.68 858.25,-563.73"/>
<text text-anchor="middle" x="852" y="-578.58" font-family="Times New Roman,serif" font-size="12.00">RendererFrontTest</text>
</g>
<!-- node31&#45;&gt;node5 -->
<g id="edge52" class="edge">
<title>node31&#45;&gt;node5</title>
<path fill="none" stroke="black" stroke-dasharray="1,5" d="M842.87,-563.76C835.32,-548.73 825.17,-525.92 821,-504.66 816.55,-481.96 816.47,-475.3 821,-452.61 829.38,-410.59 833.72,-398.88 858,-363.57 864.95,-353.47 868.99,-352.89 878,-344.57 884.02,-339.01 890.48,-333.13 896.73,-327.5"/>
<polygon fill="black" stroke="black" points="899.39,-329.81 904.48,-320.52 894.71,-324.61 899.39,-329.81"/>
</g>
<!-- node31&#45;&gt;node14 -->
<g id="edge53" class="edge">
<title>node31&#45;&gt;node14</title>
<path fill="none" stroke="black" stroke-dasharray="1,5" d="M866.42,-563.54C878.06,-549.7 894.79,-529.81 909.04,-512.87"/>
<polygon fill="black" stroke="black" points="912.04,-514.74 915.8,-504.84 906.69,-510.23 912.04,-514.74"/>
</g>
<!-- node32 -->
<g id="node41" class="node">
<title>node32</title>
<polygon fill="none" stroke="black" points="1117.74,-460.69 1120.89,-460.78 1123.99,-460.93 1127.06,-461.13 1130.06,-461.37 1133,-461.66 1135.85,-462 1138.62,-462.38 1141.28,-462.81 1143.82,-463.28 1146.25,-463.8 1148.54,-464.35 1150.7,-464.94 1152.71,-465.58 1154.57,-466.24 1156.28,-466.94 1157.82,-467.67 1159.21,-468.44 1160.42,-469.23 1161.47,-470.04 1162.35,-470.88 1163.06,-471.75 1163.61,-472.63 1163.99,-473.52 1164.21,-474.43 1164.27,-475.36 1164.17,-476.29 1163.92,-477.22 1163.53,-478.17 1162.99,-479.11 1162.32,-480.05 1161.53,-480.99 1160.61,-481.92 1159.57,-482.84 1158.43,-483.75 1157.18,-484.65 1155.84,-485.53 1154.41,-486.39 1152.9,-487.23 1151.32,-488.04 1149.67,-488.84 1147.95,-489.6 1146.19,-490.33 1144.37,-491.03 1142.51,-491.7 1140.61,-492.33 1138.67,-492.92 1136.71,-493.48 1134.72,-493.99 1132.71,-494.46 1130.67,-494.89 1128.63,-495.27 1126.57,-495.61 1124.5,-495.9 1122.42,-496.15 1120.33,-496.34 1118.24,-496.49 1116.15,-496.59 1114.05,-496.64 1111.95,-496.64 1109.85,-496.59 1107.76,-496.49 1105.67,-496.34 1103.58,-496.15 1101.5,-495.9 1099.43,-495.61 1097.37,-495.27 1095.33,-494.89 1093.29,-494.46 1091.28,-493.99 1089.29,-493.48 1087.33,-492.92 1085.39,-492.33 1083.49,-491.7 1081.63,-491.03 1079.81,-490.33 1078.05,-489.6 1076.33,-488.84 1074.68,-488.04 1073.1,-487.23 1071.59,-486.39 1070.16,-485.53 1068.82,-484.65 1067.57,-483.75 1066.43,-482.84 1065.39,-481.92 1064.47,-480.99 1063.68,-480.05 1063.01,-479.11 1062.47,-478.17 1062.08,-477.22 1061.83,-476.29 1061.73,-475.36 1061.79,-474.43 1062.01,-473.52 1062.39,-472.63 1062.94,-471.75 1063.65,-470.88 1064.53,-470.04 1065.58,-469.23 1066.79,-468.44 1068.18,-467.67 1069.72,-466.94 1071.43,-466.24 1073.29,-465.58 1075.3,-464.94 1077.46,-464.35 1079.75,-463.8 1082.18,-463.28 1084.72,-462.81 1087.38,-462.38 1090.15,-462 1093,-461.66 1095.94,-461.37 1098.94,-461.13 1102.01,-460.93 1105.11,-460.78 1108.26,-460.69 1111.42,-460.64 1114.58,-460.64 1117.74,-460.69"/>
<text text-anchor="middle" x="1113" y="-475.54" font-family="Times New Roman,serif" font-size="12.00">RendererTest</text>
</g>
<!-- node32&#45;&gt;node5 -->
<g id="edge54" class="edge">
<title>node32&#45;&gt;node5</title>
<path fill="none" stroke="black" stroke-dasharray="1,5" d="M1081.66,-463.22C1072.55,-459.4 1062.49,-455.53 1053,-452.61 974.09,-428.39 923.23,-479.53 871,-415.61 849.36,-389.14 873.13,-353.41 896.65,-328.28"/>
<polygon fill="black" stroke="black" points="899.42,-330.45 903.88,-320.84 894.4,-325.56 899.42,-330.45"/>
</g>
<!-- node32&#45;&gt;node16 -->
<g id="edge55" class="edge">
<title>node32&#45;&gt;node16</title>
<path fill="none" stroke="black" stroke-dasharray="1,5" d="M1154.8,-466.24C1172.13,-461.7 1192.46,-456.62 1211,-452.61 1298.72,-433.65 1399.75,-416.16 1470.46,-404.63"/>
<polygon fill="black" stroke="black" points="1471.36,-408.03 1480.67,-402.97 1470.23,-401.12 1471.36,-408.03"/>
</g>
<!-- node33 -->
<g id="node42" class="node">
<title>node33</title>
<polygon fill="none" stroke="black" points="2834.4,-286.06 2834.4,-307.64 2777.35,-322.9 2696.65,-322.9 2639.6,-307.64 2639.6,-286.06 2696.65,-270.81 2777.35,-270.81 2834.4,-286.06"/>
<text text-anchor="middle" x="2737" y="-300.25" font-family="Times New Roman,serif" font-size="12.00">TAppCommon</text>
<text text-anchor="middle" x="2737" y="-287.25" font-family="Times New Roman,serif" font-size="12.00">(TMIV::TAppCommon)</text>
</g>
<!-- node33&#45;&gt;node11 -->
<g id="edge56" class="edge">
<title>node33&#45;&gt;node11</title>
<path fill="none" stroke="black" d="M2708.31,-270.82C2696.36,-260.39 2682.34,-248.16 2669.65,-237.09"/>
<polygon fill="black" stroke="black" points="2671.8,-234.32 2661.96,-230.38 2667.2,-239.59 2671.8,-234.32"/>
</g>
<!-- node34 -->
<g id="node43" class="node">
<title>node34</title>
<polygon fill="none" stroke="black" points="2535.03,-371.64 2538.36,-371.74 2541.65,-371.89 2544.89,-372.08 2548.08,-372.33 2551.19,-372.62 2554.22,-372.96 2557.14,-373.34 2559.96,-373.77 2562.66,-374.24 2565.23,-374.75 2567.66,-375.31 2569.95,-375.9 2572.08,-376.53 2574.05,-377.2 2575.86,-377.9 2577.5,-378.63 2578.96,-379.39 2580.25,-380.18 2581.36,-381 2582.29,-381.84 2583.05,-382.7 2583.63,-383.58 2584.03,-384.48 2584.26,-385.39 2584.32,-386.31 2584.22,-387.24 2583.96,-388.18 2583.54,-389.12 2582.97,-390.06 2582.26,-391 2581.42,-391.94 2580.44,-392.87 2579.35,-393.79 2578.13,-394.71 2576.81,-395.6 2575.39,-396.48 2573.88,-397.34 2572.28,-398.18 2570.6,-399 2568.85,-399.79 2567.04,-400.55 2565.16,-401.29 2563.24,-401.99 2561.27,-402.65 2559.25,-403.28 2557.2,-403.88 2555.12,-404.43 2553.01,-404.94 2550.88,-405.42 2548.73,-405.84 2546.56,-406.23 2544.38,-406.56 2542.18,-406.86 2539.98,-407.1 2537.77,-407.3 2535.55,-407.44 2533.33,-407.54 2531.11,-407.59 2528.89,-407.59 2526.67,-407.54 2524.45,-407.44 2522.23,-407.3 2520.02,-407.1 2517.82,-406.86 2515.62,-406.56 2513.44,-406.23 2511.27,-405.84 2509.12,-405.42 2506.99,-404.94 2504.88,-404.43 2502.8,-403.88 2500.75,-403.28 2498.73,-402.65 2496.76,-401.99 2494.84,-401.29 2492.96,-400.55 2491.15,-399.79 2489.4,-399 2487.72,-398.18 2486.12,-397.34 2484.61,-396.48 2483.19,-395.6 2481.87,-394.71 2480.65,-393.79 2479.56,-392.87 2478.58,-391.94 2477.74,-391 2477.03,-390.06 2476.46,-389.12 2476.04,-388.18 2475.78,-387.24 2475.68,-386.31 2475.74,-385.39 2475.97,-384.48 2476.37,-383.58 2476.95,-382.7 2477.71,-381.84 2478.64,-381 2479.75,-380.18 2481.04,-379.39 2482.5,-378.63 2484.14,-377.9 2485.95,-377.2 2487.92,-376.53 2490.05,-375.9 2492.34,-375.31 2494.77,-374.75 2497.34,-374.24 2500.04,-373.77 2502.86,-373.34 2505.78,-372.96 2508.81,-372.62 2511.92,-372.33 2515.11,-372.08 2518.35,-371.89 2521.64,-371.74 2524.97,-371.64 2528.32,-371.59 2531.68,-371.59 2535.03,-371.64"/>
<text text-anchor="middle" x="2530" y="-386.49" font-family="Times New Roman,serif" font-size="12.00">TAppDecoder</text>
</g>
<!-- node34&#45;&gt;node10 -->
<g id="edge58" class="edge">
<title>node34&#45;&gt;node10</title>
<path fill="none" stroke="black" stroke-dasharray="1,5" d="M2497.71,-374.01C2467.96,-360.58 2423.12,-340.34 2387.14,-324.1"/>
<polygon fill="black" stroke="black" points="2388.28,-320.77 2377.73,-319.85 2385.4,-327.15 2388.28,-320.77"/>
</g>
<!-- node34&#45;&gt;node33 -->
<g id="edge57" class="edge">
<title>node34&#45;&gt;node33</title>
<path fill="none" stroke="black" stroke-dasharray="1,5" d="M2562.8,-374.21C2593.38,-360.81 2639.74,-340.49 2676.95,-324.18"/>
<polygon fill="black" stroke="black" points="2678.44,-327.34 2686.19,-320.12 2675.63,-320.93 2678.44,-327.34"/>
</g>
<!-- node35 -->
<g id="node44" class="node">
<title>node35</title>
<polygon fill="none" stroke="black" points="2621.69,-286.06 2621.69,-307.64 2567.98,-322.9 2492.02,-322.9 2438.31,-307.64 2438.31,-286.06 2492.02,-270.81 2567.98,-270.81 2621.69,-286.06"/>
<text text-anchor="middle" x="2530" y="-300.25" font-family="Times New Roman,serif" font-size="12.00">TLibVideoIO</text>
<text text-anchor="middle" x="2530" y="-287.25" font-family="Times New Roman,serif" font-size="12.00">(TMIV::TLibVideoIO)</text>
</g>
<!-- node34&#45;&gt;node35 -->
<g id="edge60" class="edge">
<title>node34&#45;&gt;node35</title>
<path fill="none" stroke="black" stroke-dasharray="1,5" d="M2530,-371.52C2530,-360.75 2530,-346.43 2530,-333.28"/>
<polygon fill="black" stroke="black" points="2533.5,-333.07 2530,-323.07 2526.5,-333.07 2533.5,-333.07"/>
</g>
<!-- node35&#45;&gt;node11 -->
<g id="edge59" class="edge">
<title>node35&#45;&gt;node11</title>
<path fill="none" stroke="black" d="M2558.42,-270.82C2570.25,-260.39 2584.14,-248.16 2596.7,-237.09"/>
<polygon fill="black" stroke="black" points="2599.13,-239.62 2604.32,-230.38 2594.5,-234.37 2599.13,-239.62"/>
</g>
<!-- node36 -->
<g id="node45" class="node">
<title>node36</title>
<polygon fill="none" stroke="black" points="2741.95,-371.64 2745.23,-371.74 2748.48,-371.89 2751.67,-372.08 2754.81,-372.33 2757.87,-372.62 2760.85,-372.96 2763.74,-373.34 2766.51,-373.77 2769.17,-374.24 2771.7,-374.75 2774.1,-375.31 2776.35,-375.9 2778.45,-376.53 2780.39,-377.2 2782.17,-377.9 2783.79,-378.63 2785.23,-379.39 2786.5,-380.18 2787.59,-381 2788.51,-381.84 2789.26,-382.7 2789.83,-383.58 2790.22,-384.48 2790.45,-385.39 2790.51,-386.31 2790.41,-387.24 2790.15,-388.18 2789.74,-389.12 2789.18,-390.06 2788.48,-391 2787.65,-391.94 2786.69,-392.87 2785.61,-393.79 2784.41,-394.71 2783.11,-395.6 2781.71,-396.48 2780.22,-397.34 2778.65,-398.18 2776.99,-399 2775.27,-399.79 2773.48,-400.55 2771.64,-401.29 2769.74,-401.99 2767.8,-402.65 2765.82,-403.28 2763.8,-403.88 2761.75,-404.43 2759.67,-404.94 2757.57,-405.42 2755.45,-405.84 2753.31,-406.23 2751.16,-406.56 2749,-406.86 2746.83,-407.1 2744.65,-407.3 2742.47,-407.44 2740.28,-407.54 2738.09,-407.59 2735.91,-407.59 2733.72,-407.54 2731.53,-407.44 2729.35,-407.3 2727.17,-407.1 2725,-406.86 2722.84,-406.56 2720.69,-406.23 2718.55,-405.84 2716.43,-405.42 2714.33,-404.94 2712.25,-404.43 2710.2,-403.88 2708.18,-403.28 2706.2,-402.65 2704.26,-401.99 2702.36,-401.29 2700.52,-400.55 2698.73,-399.79 2697.01,-399 2695.35,-398.18 2693.78,-397.34 2692.29,-396.48 2690.89,-395.6 2689.59,-394.71 2688.39,-393.79 2687.31,-392.87 2686.35,-391.94 2685.52,-391 2684.82,-390.06 2684.26,-389.12 2683.85,-388.18 2683.59,-387.24 2683.49,-386.31 2683.55,-385.39 2683.78,-384.48 2684.17,-383.58 2684.74,-382.7 2685.49,-381.84 2686.41,-381 2687.5,-380.18 2688.77,-379.39 2690.21,-378.63 2691.83,-377.9 2693.61,-377.2 2695.55,-376.53 2697.65,-375.9 2699.9,-375.31 2702.3,-374.75 2704.83,-374.24 2707.49,-373.77 2710.26,-373.34 2713.15,-372.96 2716.13,-372.62 2719.19,-372.33 2722.33,-372.08 2725.52,-371.89 2728.77,-371.74 2732.05,-371.64 2735.35,-371.59 2738.65,-371.59 2741.95,-371.64"/>
<text text-anchor="middle" x="2737" y="-386.49" font-family="Times New Roman,serif" font-size="12.00">TAppEncoder</text>
</g>
<!-- node36&#45;&gt;node33 -->
<g id="edge61" class="edge">
<title>node36&#45;&gt;node33</title>
<path fill="none" stroke="black" stroke-dasharray="1,5" d="M2737,-371.52C2737,-360.75 2737,-346.43 2737,-333.28"/>
<polygon fill="black" stroke="black" points="2740.5,-333.07 2737,-323.07 2733.5,-333.07 2740.5,-333.07"/>
</g>
<!-- node36&#45;&gt;node35 -->
<g id="edge64" class="edge">
<title>node36&#45;&gt;node35</title>
<path fill="none" stroke="black" stroke-dasharray="1,5" d="M2704.2,-374.21C2673.3,-360.67 2626.3,-340.07 2588.91,-323.67"/>
<polygon fill="black" stroke="black" points="2590.18,-320.41 2579.62,-319.6 2587.37,-326.82 2590.18,-320.41"/>
</g>
<!-- node37 -->
<g id="node46" class="node">
<title>node37</title>
<polygon fill="none" stroke="black" points="3033.13,-286.06 3033.13,-307.64 2980.33,-322.9 2905.67,-322.9 2852.87,-307.64 2852.87,-286.06 2905.67,-270.81 2980.33,-270.81 3033.13,-286.06"/>
<text text-anchor="middle" x="2943" y="-300.25" font-family="Times New Roman,serif" font-size="12.00">TLibEncoder</text>
<text text-anchor="middle" x="2943" y="-287.25" font-family="Times New Roman,serif" font-size="12.00">(TMIV::TLibEncoder)</text>
</g>
<!-- node36&#45;&gt;node37 -->
<g id="edge63" class="edge">
<title>node36&#45;&gt;node37</title>
<path fill="none" stroke="black" stroke-dasharray="1,5" d="M2769.64,-374.21C2800.39,-360.67 2847.16,-340.07 2884.38,-323.67"/>
<polygon fill="black" stroke="black" points="2885.88,-326.84 2893.62,-319.6 2883.06,-320.43 2885.88,-326.84"/>
</g>
<!-- node37&#45;&gt;node11 -->
<g id="edge62" class="edge">
<title>node37&#45;&gt;node11</title>
<path fill="none" stroke="black" d="M2881.38,-277.82C2830.77,-263 2758.97,-241.98 2705.57,-226.36"/>
<polygon fill="black" stroke="black" points="2706.41,-222.95 2695.83,-223.5 2704.44,-229.67 2706.41,-222.95"/>
</g>
<!-- node38 -->
<g id="node47" class="node">
<title>node38</title>
<polygon fill="none" stroke="black" points="2165.1,-460.69 2168.48,-460.78 2171.82,-460.93 2175.12,-461.13 2178.35,-461.37 2181.51,-461.66 2184.58,-462 2187.55,-462.38 2190.41,-462.81 2193.15,-463.28 2195.76,-463.8 2198.22,-464.35 2200.54,-464.94 2202.71,-465.58 2204.71,-466.24 2206.54,-466.94 2208.2,-467.67 2209.69,-468.44 2211,-469.23 2212.13,-470.04 2213.07,-470.88 2213.84,-471.75 2214.43,-472.63 2214.84,-473.52 2215.07,-474.43 2215.13,-475.36 2215.03,-476.29 2214.76,-477.22 2214.34,-478.17 2213.76,-479.11 2213.04,-480.05 2212.19,-480.99 2211.2,-481.92 2210.08,-482.84 2208.85,-483.75 2207.51,-484.65 2206.07,-485.53 2204.53,-486.39 2202.91,-487.23 2201.21,-488.04 2199.43,-488.84 2197.59,-489.6 2195.69,-490.33 2193.73,-491.03 2191.73,-491.7 2189.69,-492.33 2187.61,-492.92 2185.5,-493.48 2183.36,-493.99 2181.19,-494.46 2179.01,-494.89 2176.81,-495.27 2174.59,-495.61 2172.36,-495.9 2170.13,-496.15 2167.88,-496.34 2165.64,-496.49 2163.38,-496.59 2161.13,-496.64 2158.87,-496.64 2156.62,-496.59 2154.36,-496.49 2152.12,-496.34 2149.87,-496.15 2147.64,-495.9 2145.41,-495.61 2143.19,-495.27 2140.99,-494.89 2138.81,-494.46 2136.64,-493.99 2134.5,-493.48 2132.39,-492.92 2130.31,-492.33 2128.27,-491.7 2126.27,-491.03 2124.31,-490.33 2122.41,-489.6 2120.57,-488.84 2118.79,-488.04 2117.09,-487.23 2115.47,-486.39 2113.93,-485.53 2112.49,-484.65 2111.15,-483.75 2109.92,-482.84 2108.8,-481.92 2107.81,-480.99 2106.96,-480.05 2106.24,-479.11 2105.66,-478.17 2105.24,-477.22 2104.97,-476.29 2104.87,-475.36 2104.93,-474.43 2105.16,-473.52 2105.57,-472.63 2106.16,-471.75 2106.93,-470.88 2107.87,-470.04 2109,-469.23 2110.31,-468.44 2111.8,-467.67 2113.46,-466.94 2115.29,-466.24 2117.29,-465.58 2119.46,-464.94 2121.78,-464.35 2124.24,-463.8 2126.85,-463.28 2129.59,-462.81 2132.45,-462.38 2135.42,-462 2138.49,-461.66 2141.65,-461.37 2144.88,-461.13 2148.18,-460.93 2151.52,-460.78 2154.9,-460.69 2158.3,-460.64 2161.7,-460.64 2165.1,-460.69"/>
<text text-anchor="middle" x="2160" y="-475.54" font-family="Times New Roman,serif" font-size="12.00">VideoDecoder</text>
</g>
<!-- node38&#45;&gt;node9 -->
<g id="edge65" class="edge">
<title>node38&#45;&gt;node9</title>
<path fill="none" stroke="black" stroke-dasharray="1,5" d="M2131.76,-462.27C2110.5,-450.71 2080.68,-434.48 2054.78,-420.4"/>
<polygon fill="black" stroke="black" points="2056.27,-417.22 2045.81,-415.51 2052.92,-423.37 2056.27,-417.22"/>
</g>
<!-- node39 -->
<g id="node48" class="node">
<title>node39</title>
<polygon fill="none" stroke="black" points="1134.15,-371.64 1138.22,-371.74 1142.24,-371.89 1146.21,-372.08 1150.11,-372.33 1153.91,-372.62 1157.61,-372.96 1161.19,-373.34 1164.64,-373.77 1167.94,-374.24 1171.08,-374.75 1174.05,-375.31 1176.85,-375.9 1179.45,-376.53 1181.86,-377.2 1184.07,-377.9 1186.08,-378.63 1187.87,-379.39 1189.44,-380.18 1190.8,-381 1191.94,-381.84 1192.86,-382.7 1193.57,-383.58 1194.07,-384.48 1194.35,-385.39 1194.42,-386.31 1194.3,-387.24 1193.98,-388.18 1193.47,-389.12 1192.77,-390.06 1191.91,-391 1190.87,-391.94 1189.68,-392.87 1188.34,-393.79 1186.85,-394.71 1185.24,-395.6 1183.5,-396.48 1181.65,-397.34 1179.7,-398.18 1177.64,-399 1175.5,-399.79 1173.29,-400.55 1171,-401.29 1168.64,-401.99 1166.23,-402.65 1163.77,-403.28 1161.26,-403.88 1158.72,-404.43 1156.14,-404.94 1153.53,-405.42 1150.9,-405.84 1148.25,-406.23 1145.58,-406.56 1142.9,-406.86 1140.2,-407.1 1137.5,-407.3 1134.79,-407.44 1132.08,-407.54 1129.36,-407.59 1126.64,-407.59 1123.92,-407.54 1121.21,-407.44 1118.5,-407.3 1115.8,-407.1 1113.1,-406.86 1110.42,-406.56 1107.75,-406.23 1105.1,-405.84 1102.47,-405.42 1099.86,-404.94 1097.28,-404.43 1094.74,-403.88 1092.23,-403.28 1089.77,-402.65 1087.36,-401.99 1085,-401.29 1082.71,-400.55 1080.5,-399.79 1078.36,-399 1076.3,-398.18 1074.35,-397.34 1072.5,-396.48 1070.76,-395.6 1069.15,-394.71 1067.66,-393.79 1066.32,-392.87 1065.13,-391.94 1064.09,-391 1063.23,-390.06 1062.53,-389.12 1062.02,-388.18 1061.7,-387.24 1061.58,-386.31 1061.65,-385.39 1061.93,-384.48 1062.43,-383.58 1063.14,-382.7 1064.06,-381.84 1065.2,-381 1066.56,-380.18 1068.13,-379.39 1069.92,-378.63 1071.93,-377.9 1074.14,-377.2 1076.55,-376.53 1079.15,-375.9 1081.95,-375.31 1084.92,-374.75 1088.06,-374.24 1091.36,-373.77 1094.81,-373.34 1098.39,-372.96 1102.09,-372.62 1105.89,-372.33 1109.79,-372.08 1113.76,-371.89 1117.78,-371.74 1121.85,-371.64 1125.95,-371.59 1130.05,-371.59 1134.15,-371.64"/>
<text text-anchor="middle" x="1128" y="-386.49" font-family="Times New Roman,serif" font-size="12.00">ViewingSpaceTest</text>
</g>
<!-- node39&#45;&gt;node5 -->
<g id="edge66" class="edge">
<title>node39&#45;&gt;node5</title>
<path fill="none" stroke="black" stroke-dasharray="1,5" d="M1094.41,-373.2C1063.12,-358.86 1016.03,-337.28 980.26,-320.89"/>
<polygon fill="black" stroke="black" points="981.51,-317.61 970.96,-316.62 978.6,-323.97 981.51,-317.61"/>
</g>
<!-- node39&#45;&gt;node17 -->
<g id="edge67" class="edge">
<title>node39&#45;&gt;node17</title>
<path fill="none" stroke="black" stroke-dasharray="1,5" d="M1170.04,-374.55C1180.79,-370.97 1192.32,-367.12 1203,-363.57 1244.64,-349.71 1291.22,-334.25 1328.74,-321.81"/>
<polygon fill="black" stroke="black" points="1330.18,-325.02 1338.57,-318.55 1327.97,-318.37 1330.18,-325.02"/>
</g>
<!-- node40 -->
<g id="node49" class="node">
<title>node40</title>
<polygon fill="none" stroke="black" points="1296.28,-683.67 1195,-704.36 1093.72,-683.67 1132.41,-650.2 1257.59,-650.2 1296.28,-683.67"/>
<text text-anchor="middle" x="1195" y="-677.82" font-family="Times New Roman,serif" font-size="12.00">fmt&#45;header&#45;only</text>
<text text-anchor="middle" x="1195" y="-664.82" font-family="Times New Roman,serif" font-size="12.00">(fmt::fmt&#45;header&#45;only)</text>
</g>
</g>
</svg>
